<svg width="250" height="250" viewBox="0 0 250 250" fill="none" xmlns="http://www.w3.org/2000/svg">
<rect x="0.5" y="0.5" width="249" height="249" rx="4.5" fill="#0366D6"/>
<path d="M76.2513 168.95V148.463C76.2513 134.289 88.8959 122.199 103.466 122.199H146.378C158.323 122.199 165.727 111.954 165.727 99.9654V59.0743C165.727 47.4353 156.971 38.6949 145.31 36.7537C137.931 35.5259 130.809 34.967 123.464 35.0015C116.121 35.0361 108.54 35.6601 102.368 36.7537C84.1862 39.9612 80.3184 46.6812 80.3184 59.0743V75.4474H123.023V81.5454H65.8619C53.376 81.5454 42.4436 88.7207 39.0232 102.994C35.0802 119.351 34.9053 129.829 39.0232 146.91C42.0776 159.622 49.3719 168.95 61.8558 168.95H76.2513V168.95ZM100.764 64.5279C96.3102 64.5279 92.7027 60.8793 92.7027 56.3709C92.7027 51.8401 96.3081 48.161 100.764 48.161C105.201 48.161 108.825 51.8421 108.825 56.3709C108.825 60.8793 105.201 64.5279 100.764 64.5279ZM210.821 102.994C207.736 90.5663 201.841 81.5454 189.341 81.5454H171.828V99.9654C171.828 114.749 160.676 128.297 146.378 128.297H103.466C91.7123 128.297 80.3184 137.246 80.3184 149.016V189.907C80.3184 201.544 91.2751 208.39 102.634 211.725C116.231 215.723 128.625 216.445 144.896 211.725C155.71 208.595 165.727 202.298 165.727 189.907V175.048H123.023V168.95H189.339C201.825 168.95 206.477 159.974 210.819 146.91C215.305 133.458 215.114 120.251 210.821 102.994V102.994ZM149.081 184.449C153.534 184.449 157.144 188.097 157.144 192.61C157.144 197.137 153.536 200.816 149.081 200.816C144.643 200.816 141.022 197.135 141.022 192.61C141.022 188.097 144.643 184.449 149.081 184.449Z" fill="white"/>
<rect x="0.5" y="0.5" width="249" height="249" rx="4.5" stroke="#0366D6"/>
</svg>
