<svg width="1000" height="1000" viewBox="0 0 1000 1000" fill="none" xmlns="http://www.w3.org/2000/svg">
<g clip-path="url(#clip0)">
<path d="M186.035 0L186.035 1000L813.594 1000L813.594 -2.74315e-05L186.035 0Z" fill="white"/>
<path fill-rule="evenodd" clip-rule="evenodd" d="M157.772 -818.18C255.693 -801.4 345.703 -760.185 434.514 -719.075C527.56 -676.008 628.963 -637.484 695.449 -569.301C762.171 -500.878 800.399 -415.617 811.242 -332.739C821.719 -252.629 799.72 -172.461 756.305 -104.086C716.167 -40.875 674.117 -131.178 638.831 -65.8552C601.147 3.90652 566.103 142.794 506.537 200.873C450.793 255.223 373.494 313.121 297.707 349.36C197.748 397.157 142.552 567.836 23.952 581.41C-83.1629 593.671 -146.431 420.702 -249.934 382.208C-353.127 343.83 -499.803 364.594 -565.639 289.29C-638.034 206.485 -549.394 97.3621 -582.195 2.16505C-607.527 -71.3424 -690.328 -125.935 -732.693 -195.501C-785.532 -282.259 -909.574 -379.191 -864.209 -460.887C-814.853 -549.763 -622.226 -508.449 -526.503 -566.808C-455.513 -610.09 -460.335 -705.931 -390.084 -749.946C-319.036 -794.459 -221.294 -804.227 -129.279 -815.687C-35.2298 -827.398 61.3095 -834.709 157.772 -818.18Z" fill="#E3F2FF"/>
</g>
<defs>
<clipPath id="clip0">
<rect width="1000" height="1000" fill="white" transform="translate(0 1000) rotate(-90)"/>
</clipPath>
</defs>
</svg>
