<svg width="1000" height="1000" viewBox="0 0 1000 1000" fill="none" xmlns="http://www.w3.org/2000/svg">
<g clip-path="url(#clip0)">
<path d="M881.146 552.294L903.014 530.421C901.021 515.92 898.212 501.544 894.6 487.36L882.137 493.667L893.334 482.467C888.693 464.973 884.512 453.681 884.512 453.681C884.512 453.681 840.441 498.55 817.663 551.165L831.776 588.256L812.467 564.412C810.265 570.638 808.456 576.996 807.053 583.449C793.116 648.552 803.088 705.88 829.324 711.493C855.561 717.106 888.127 668.879 902.063 603.775C906.384 583.592 906.337 561.499 904.217 540.619L881.146 552.294Z" fill="#E6E6E6"/>
<path d="M946.131 597.726L976.16 590.302C981.952 576.86 986.981 563.101 991.223 549.092L977.293 548.051L992.668 544.25C997.741 526.876 1000 515.049 1000 515.049C1000 515.049 939.074 530.685 892.37 563.955L885.274 603L881.073 572.61C875.968 576.802 871.133 581.31 866.595 586.108C821.003 634.639 799.897 688.866 819.455 707.229C839.012 725.592 891.827 701.136 937.419 652.606C951.553 637.561 962.936 618.624 971.918 599.654L946.131 597.726Z" fill="#E6E6E6"/>
<path d="M659.527 328.034L666.904 270.15C647.185 250.808 626.39 232.593 604.619 215.593L593.302 239.389L597.079 209.753C569.95 188.998 550.67 176.971 550.67 176.971C550.67 176.971 536.71 294.801 563.476 399.618L627.374 438.688L571.019 425.387C574.922 437.22 579.565 448.796 584.922 460.047C639.306 573.298 720.391 647.35 766.031 625.446C811.671 603.542 804.582 493.977 750.198 380.726C733.338 345.618 707.754 312.699 680.478 283.981L659.527 328.034Z" fill="#E6E6E6"/>
<path d="M808.983 320.839L845.227 275.1C838.348 248.353 829.965 222.014 820.118 196.211L798.126 210.733L816.683 187.315C804.19 155.529 793.904 135.271 793.904 135.271C793.904 135.271 721.03 228.925 689.747 332.484L724.245 398.949L682.88 358.441C680.103 370.588 678.092 382.897 676.86 395.296C664.859 520.347 695.983 625.639 746.378 630.473C796.773 635.307 847.355 537.851 859.357 412.8C863.077 374.033 858.197 332.633 849.696 293.954L808.983 320.839Z" fill="#E6E6E6"/>
<path d="M140.825 336.542L137.159 275.806C113.204 259.811 88.3667 245.179 62.764 231.98L55.7834 258.554L53.9064 227.458C22.0859 211.451 0 202.866 0 202.866C0 202.866 8.54753 326.295 56.297 428.499L129.34 456.144L69.0221 453.439C75.3155 464.806 82.3178 475.767 89.9876 486.256C167.669 591.748 265.106 651.904 307.619 620.617C350.132 589.33 321.622 478.448 243.941 372.956C219.859 340.252 187.263 311.483 153.748 287.346L140.825 336.542Z" fill="#E6E6E6"/>
<path d="M292.557 300.204L320.822 246.317C308.586 220.246 294.889 194.885 279.797 170.357L260.081 189.498L274.553 161.908C255.589 131.763 241.122 113 241.122 113C241.122 113 184.619 223.078 172.65 335.244L220.885 396.654L170.648 363.169C170.158 376.152 170.485 389.153 171.628 402.096C183.581 532.544 235.888 634.39 288.458 629.576C341.028 624.761 373.954 515.109 362.001 384.661C358.295 344.221 345.266 302.749 329.056 264.768L292.557 300.204Z" fill="#E6E6E6"/>
<path d="M450.685 845.478C471.27 845.478 487.958 840.712 487.958 834.832C487.958 828.952 471.27 824.186 450.685 824.186C430.099 824.186 413.411 828.952 413.411 834.832C413.411 840.712 430.099 845.478 450.685 845.478Z" fill="#E6E6E6"/>
<path d="M856.435 887C877.02 887 893.708 882.233 893.708 876.354C893.708 870.474 877.02 865.707 856.435 865.707C835.849 865.707 819.161 870.474 819.161 876.354C819.161 882.233 835.849 887 856.435 887Z" fill="#E6E6E6"/>
<path d="M934.176 799.699C954.762 799.699 971.45 794.932 971.45 789.052C971.45 783.172 954.762 778.406 934.176 778.406C913.59 778.406 896.902 783.172 896.902 789.052C896.902 794.932 913.59 799.699 934.176 799.699Z" fill="#E6E6E6"/>
<path d="M781.354 768.824C796.941 768.824 809.576 765.215 809.576 760.763C809.576 756.311 796.941 752.702 781.354 752.702C765.768 752.702 753.133 756.311 753.133 760.763C753.133 765.215 765.768 768.824 781.354 768.824Z" fill="#E6E6E6"/>
<path d="M170.067 761.219C180.36 761.219 188.704 758.632 188.704 755.44C188.704 752.248 180.36 749.66 170.067 749.66C159.775 749.66 151.431 752.248 151.431 755.44C151.431 758.632 159.775 761.219 170.067 761.219Z" fill="#E6E6E6"/>
<path d="M96.5851 826.163C106.878 826.163 115.222 823.575 115.222 820.384C115.222 817.192 106.878 814.604 96.5851 814.604C86.2922 814.604 77.9482 817.192 77.9482 820.384C77.9482 823.575 86.2922 826.163 96.5851 826.163Z" fill="#E6E6E6"/>
<path d="M96.5851 723.956C106.878 723.956 115.222 721.369 115.222 718.177C115.222 714.985 106.878 712.397 96.5851 712.397C86.2922 712.397 77.9482 714.985 77.9482 718.177C77.9482 721.369 86.2922 723.956 96.5851 723.956Z" fill="#E6E6E6"/>
<path d="M894.636 736.836L714.062 730.448L618.833 739.529L456.139 755.041L394.914 760.876L253.126 808.146C252.556 808.336 251.945 808.36 251.362 808.217C250.78 808.073 250.25 807.767 249.834 807.335C249.418 806.903 249.134 806.361 249.013 805.774C248.893 805.186 248.941 804.576 249.153 804.015L249.164 804.004L273.754 738.986L271.166 737.081L203.498 687.372L203.136 687.106L115.394 673.734C114.159 673.545 112.992 673.044 112.004 672.279C111.016 671.513 110.24 670.509 109.747 669.361C109.255 668.213 109.063 666.958 109.191 665.715C109.318 664.472 109.759 663.282 110.474 662.257L244.105 470.556L314.329 369.841L321.943 358.907L614.062 354.872L899.269 727.871C899.911 728.711 900.302 729.717 900.394 730.77C900.487 731.823 900.279 732.881 899.793 733.821C899.308 734.76 898.565 735.542 897.652 736.076C896.739 736.61 895.693 736.873 894.636 736.836V736.836Z" fill="#1e86fc"/>
<path opacity="0.2" d="M390.372 374.464L271.163 737.081L203.503 687.373L244.108 470.559L314.127 369.601L314.326 369.836L390.372 374.464Z" fill="black"/>
<path d="M283.963 513.377C270.437 545.885 265.648 573.037 249.604 568.134C227.638 561.421 250.701 537.678 264.227 505.17C277.754 472.662 287.311 447.726 298.587 450.413C319.608 455.423 297.489 480.869 283.963 513.377Z" fill="#3F3D56"/>
<path d="M314.61 448.308C314.606 446.156 314.179 444.027 313.352 442.04C312.526 440.054 311.316 438.25 309.791 436.731C308.267 435.212 306.459 434.008 304.469 433.188C302.48 432.368 300.348 431.948 298.196 431.951C297.826 431.952 297.461 431.969 297.097 431.994L281.633 430.087C279.859 429.454 277.988 429.133 276.104 429.138C275.584 429.139 275.07 429.167 274.562 429.215L273.967 429.141L273.951 429.287C270.322 429.774 266.96 431.462 264.403 434.081C261.845 436.701 260.239 440.102 259.841 443.741C259.442 447.38 260.274 451.047 262.204 454.158C264.134 457.269 267.05 459.645 270.488 460.905L270.456 461.2L271.977 461.37C273.342 461.727 274.747 461.906 276.157 461.903C276.313 461.903 276.468 461.895 276.623 461.89L292.432 463.661C294.29 464.363 296.262 464.721 298.249 464.717C298.99 464.714 299.73 464.662 300.463 464.56L301.811 464.711L301.819 464.316C305.454 463.498 308.701 461.467 311.026 458.557C313.351 455.647 314.615 452.032 314.61 448.308V448.308Z" fill="#1e86fc"/>
<path opacity="0.2" d="M314.61 448.308C314.606 446.156 314.179 444.027 313.352 442.04C312.526 440.054 311.316 438.25 309.791 436.731C308.267 435.212 306.459 434.008 304.469 433.188C302.48 432.368 300.348 431.948 298.196 431.951C297.826 431.952 297.461 431.969 297.097 431.994L281.633 430.087C279.859 429.454 277.988 429.133 276.104 429.138C275.584 429.139 275.07 429.167 274.562 429.215L273.967 429.141L273.951 429.287C270.322 429.774 266.96 431.462 264.403 434.081C261.845 436.701 260.239 440.102 259.841 443.741C259.442 447.38 260.274 451.047 262.204 454.158C264.134 457.269 267.05 459.645 270.488 460.905L270.456 461.2L271.977 461.37C273.342 461.727 274.747 461.906 276.157 461.903C276.313 461.903 276.468 461.895 276.623 461.89L292.432 463.661C294.29 464.363 296.262 464.721 298.249 464.717C298.99 464.714 299.73 464.662 300.463 464.56L301.811 464.711L301.819 464.316C305.454 463.498 308.701 461.467 311.026 458.557C313.351 455.647 314.615 452.032 314.61 448.308V448.308Z" fill="white"/>
<path d="M95.7541 672.104L93.8613 671.111C142.343 578.732 279.468 381.354 280.847 379.371L282.602 380.591C281.224 382.573 144.174 579.842 95.7541 672.104Z" fill="#3F3D56"/>
<path d="M244.261 810.545L242.199 809.983C243.198 806.312 342.503 442.157 376.982 380.728L378.846 381.773C344.495 442.975 245.26 806.876 244.261 810.545Z" fill="#3F3D56"/>
<path d="M907.673 739.944C854.731 652.758 654.801 382.736 652.787 380.019L654.505 378.747C656.519 381.465 856.508 651.566 909.5 738.835L907.673 739.944Z" fill="#3F3D56"/>
<path d="M240.413 820.238C244.545 820.231 247.888 815.92 247.879 810.61C247.871 805.299 244.514 800.999 240.383 801.006C236.251 801.013 232.908 805.323 232.917 810.634C232.925 815.945 236.282 820.244 240.413 820.238Z" fill="#3F3D56"/>
<path d="M96.2407 676.234C100.372 676.228 103.715 671.917 103.706 666.606C103.698 661.296 100.341 656.996 96.2097 657.003C92.078 657.009 88.7354 661.32 88.744 666.63C88.7525 671.941 92.1089 676.241 96.2407 676.234Z" fill="#3F3D56"/>
<path d="M909.656 744.743C913.788 744.736 917.13 740.426 917.121 735.115C917.113 729.805 913.757 725.505 909.625 725.511C905.493 725.518 902.15 729.829 902.159 735.139C902.168 740.45 905.524 744.75 909.656 744.743Z" fill="#3F3D56"/>
<path d="M272.539 389.977L675.756 394.297C675.476 361.375 662.193 329.897 638.801 306.722C615.41 283.547 583.805 270.552 550.872 270.568L396.99 270.816C332.624 270.919 278.124 321.24 272.914 385.375L272.539 389.977Z" fill="#3F3D56"/>
<path opacity="0.2" d="M626.82 523.225H479.451C477.656 523.223 475.88 523.578 474.224 524.268C472.568 524.959 471.065 525.971 469.804 527.247C468.543 528.523 467.548 530.036 466.876 531.7C466.205 533.363 465.871 535.144 465.894 536.937L466.021 547.712L467.331 663.056L467.353 665.281L467.395 668.954L467.438 672.542L467.683 694.165C467.723 697.683 469.13 701.049 471.606 703.55C474.082 706.051 477.433 707.492 480.952 707.569C481.314 707.569 481.687 707.558 482.06 707.537L517.054 705.407L567.683 702.32L585.553 701.234L589.536 700.989L617.384 699.296H617.395L627.64 698.668C631.086 698.454 634.321 696.936 636.687 694.422C639.053 691.909 640.373 688.588 640.377 685.136V536.778C640.373 533.184 638.943 529.739 636.402 527.198C633.86 524.658 630.414 523.228 626.82 523.225V523.225Z" fill="black"/>
<path d="M657.168 504.386C656.635 504.428 656.118 504.588 655.654 504.854C655.191 505.12 654.791 505.485 654.485 505.923L638.248 505.949V501.644C638.244 498.051 636.814 494.606 634.273 492.065C631.731 489.524 628.285 488.095 624.691 488.091H477.321C475.527 488.09 473.75 488.444 472.094 489.135C470.438 489.825 468.936 490.838 467.675 492.114C466.414 493.39 465.418 494.903 464.747 496.567C464.076 498.23 463.742 500.01 463.765 501.804L463.817 506.23L453.345 506.247C452.771 505.636 451.983 505.271 451.146 505.228C447.475 505.234 444.512 513.247 444.528 523.126C444.544 533.006 447.533 541.009 451.203 541.003C451.843 540.934 452.456 540.711 452.991 540.354C453.527 539.998 453.968 539.517 454.279 538.954L654.538 538.632C654.846 539.069 655.246 539.433 655.711 539.698C656.175 539.962 656.693 540.12 657.226 540.161C660.896 540.155 663.859 532.142 663.843 522.263C663.827 512.384 660.839 504.38 657.168 504.386Z" fill="#1e86fc"/>
<path opacity="0.2" d="M657.167 504.386C656.634 504.428 656.117 504.588 655.654 504.854C655.19 505.12 654.791 505.485 654.485 505.923L638.247 505.949V501.644C638.243 498.051 636.813 494.606 634.272 492.065C631.73 489.524 628.284 488.095 624.69 488.091H477.321C475.526 488.09 473.75 488.444 472.094 489.135C470.438 489.825 468.935 490.838 467.674 492.114C466.413 493.39 465.417 494.903 464.746 496.567C464.075 498.23 463.741 500.01 463.764 501.804L463.816 506.23L453.344 506.247C452.77 505.636 451.982 505.271 451.145 505.228C447.474 505.234 444.512 513.247 444.527 523.126C444.543 533.006 447.532 541.009 451.202 541.003C451.842 540.934 452.455 540.711 452.99 540.354C453.526 539.998 453.967 539.517 454.278 538.954L654.537 538.632C654.845 539.069 655.245 539.433 655.71 539.698C656.174 539.962 656.692 540.12 657.225 540.161C660.895 540.155 663.858 532.142 663.842 522.263C663.826 512.384 660.838 504.38 657.167 504.386Z" fill="white"/>
<path d="M640.67 730.559C639.694 731.471 638.521 732.145 637.241 732.529C635.962 732.913 634.61 732.995 633.294 732.77C631.977 732.545 630.73 732.019 629.65 731.232C628.571 730.445 627.688 729.419 627.071 728.235L619.059 712.856L622.246 705.952L639.422 716.942C640.533 717.653 641.468 718.608 642.153 719.735C642.839 720.862 643.258 722.131 643.378 723.445C643.499 724.758 643.317 726.082 642.848 727.315C642.379 728.548 641.634 729.657 640.67 730.559Z" fill="#FFB8B8"/>
<path d="M675.279 820.284C675.089 818.507 674.242 816.865 672.905 815.68C671.567 814.495 669.835 813.851 668.047 813.876C666.419 813.865 664.835 814.401 663.548 815.399C662.261 816.396 661.347 817.796 660.952 819.376V819.376L653.857 853.821C653.622 854.828 653.501 855.858 653.494 856.892C653.494 864.66 659.997 870.058 668.047 870.058C676.098 870.058 682.605 864.66 682.605 856.892C682.601 855.648 682.431 854.409 682.102 853.209L675.279 820.284Z" fill="#3F3D56"/>
<path d="M728.951 835.69C728.229 835.058 727.453 834.49 726.631 833.995L699.524 815.057C696.885 813.401 694.066 813.447 692.019 815.447C691.126 816.297 690.559 817.433 690.416 818.657C690.274 819.882 690.565 821.118 691.24 822.15L711.707 849.043C712.175 849.695 712.696 850.306 713.267 850.871C716.814 854.834 724.682 855.053 729.005 850.871C733.27 846.618 733.22 839.042 728.951 835.69Z" fill="#3F3D56"/>
<path d="M749.322 807.636H721.868C720.988 807.603 720.13 807.918 719.482 808.514C718.833 809.11 718.447 809.937 718.406 810.817C718.392 811.627 718.65 812.42 719.139 813.067C719.628 813.714 720.32 814.179 721.104 814.387L747.002 822.396C750.764 823.273 755.832 819.921 755.832 815.735C755.832 810.411 752.869 807.636 749.322 807.636Z" fill="#3F3D56"/>
<path d="M618.687 810.801C618.658 810.349 618.54 809.907 618.338 809.501C618.137 809.095 617.856 808.734 617.513 808.437C617.17 808.141 616.771 807.916 616.34 807.776C615.909 807.636 615.455 807.583 615.003 807.621H587.549C584.091 807.621 581.175 811.354 581.175 815.54C581.175 819.726 586.095 823.273 589.869 822.396L616.157 814.387C616.945 814.203 617.639 813.737 618.105 813.076C618.572 812.414 618.779 811.605 618.687 810.801Z" fill="#3F3D56"/>
<path d="M637.53 815.088L610.415 833.944C609.573 834.418 608.788 834.987 608.076 835.64C606.082 837.493 604.907 840.062 604.808 842.782C604.71 845.502 605.696 848.15 607.55 850.143C607.719 850.324 607.894 850.499 608.076 850.668C610.203 852.676 613.018 853.795 615.943 853.795C618.869 853.795 621.684 852.676 623.811 850.668C624.39 850.114 624.912 849.503 625.37 848.844L645.853 822.104C646.539 821.085 646.838 819.854 646.695 818.635C646.552 817.415 645.976 816.287 645.073 815.455C644.062 814.512 642.75 813.958 641.369 813.891C639.988 813.824 638.627 814.248 637.53 815.088V815.088Z" fill="#3F3D56"/>
<path d="M679.705 778.239C680.02 777.776 680.195 777.233 680.208 776.673C680.208 773.372 673.702 771.078 665.651 771.078C657.601 771.078 651.098 773.372 651.098 776.673C651.109 777.132 651.234 777.58 651.46 777.979L658.556 792.618C659.369 793.999 662.3 794.964 665.651 794.955C669.429 794.955 672.567 793.76 672.883 792.232L679.705 778.239Z" fill="#3F3D56"/>
<path d="M726.61 779.232C722.286 777.455 714.419 777.547 710.871 779.232C710.334 779.455 709.813 779.715 709.312 780.009L688.844 791.438C687.452 792.343 687.78 793.541 689.624 794.287C692.046 795.126 694.671 795.184 697.129 794.452L724.235 786.404C725.021 786.205 725.795 785.964 726.555 785.684C730.824 784.259 730.875 781.039 726.61 779.232Z" fill="#3F3D56"/>
<path d="M753.436 794.164C753.436 792.385 748.368 790.961 744.606 791.334L718.708 794.737C717.16 794.954 716.01 795.458 716.01 796.255C716.01 797.051 717.698 797.606 719.472 797.606H746.926C750.473 797.606 753.436 796.427 753.436 794.164Z" fill="#3F3D56"/>
<path d="M613.761 794.737L587.473 791.333C583.699 790.961 578.779 792.468 578.779 794.247C578.779 796.026 581.695 797.613 585.154 797.613H612.607C614.518 797.613 616.291 797.089 616.291 796.261C616.291 795.433 615.473 794.954 613.761 794.737Z" fill="#3F3D56"/>
<path d="M642.677 794.283C644.595 793.526 644.821 792.382 643.457 791.458L622.974 780.093C622.476 779.793 621.954 779.534 621.414 779.318C616.319 777.546 610.775 777.546 605.679 779.318C605.498 779.39 605.323 779.464 605.154 779.542C601.293 781.305 601.528 784.065 605.679 785.705C606.442 785.998 607.223 786.239 608.019 786.426L635.133 794.439C637.603 795.172 640.24 795.118 642.677 794.283V794.283Z" fill="#3F3D56"/>
<path d="M721.489 775.869C721.489 818.202 697.888 818.985 668.776 818.985C639.663 818.985 591.866 810.61 616.063 775.869C641.583 739.226 685.364 669.382 668.776 665.683C668.776 665.683 721.489 733.536 721.489 775.869Z" fill="#F9A825"/>
<path opacity="0.5" d="M687.34 801.918C687.34 818.675 677.998 818.985 666.474 818.985C654.95 818.985 636.031 815.67 645.609 801.918C655.71 787.414 673.041 759.767 666.474 758.303C666.474 758.303 687.34 785.161 687.34 801.918Z" fill="#FF6584"/>
<path d="M640.378 677.567V685.136C640.373 688.588 639.054 691.909 636.688 694.422C634.322 696.936 631.087 698.454 627.641 698.668L482.06 707.537C480.227 707.649 478.39 707.387 476.661 706.768C474.932 706.149 473.347 705.184 472.003 703.934C470.658 702.683 469.582 701.172 468.839 699.493C468.097 697.813 467.703 696.001 467.683 694.165L467.332 663.056L555.394 661.629L640.378 677.567Z" fill="#3F3D56"/>
<path d="M616.638 715.062L550.96 680.96C550.657 680.803 550.391 680.583 550.18 680.315C549.969 680.047 549.817 679.737 549.735 679.406L535.488 622.003C534.661 618.672 535.107 615.152 536.739 612.133C538.372 609.114 541.072 606.813 544.312 605.679L547.744 604.478C548.509 604.21 549.321 604.102 550.13 604.161C550.938 604.22 551.726 604.444 552.445 604.819C553.163 605.194 553.797 605.713 554.307 606.343C554.816 606.973 555.191 607.701 555.408 608.482L569.451 659.021C569.582 659.493 569.855 659.915 570.233 660.228L623.745 704.553C624.207 704.936 624.509 705.477 624.592 706.07C624.676 706.664 624.534 707.267 624.196 707.762L619.73 714.286C619.399 714.771 618.901 715.117 618.331 715.26C617.761 715.403 617.159 715.332 616.638 715.062V715.062Z" fill="#E6E6E6"/>
<path d="M573.371 625.757C541.517 608.992 508.173 600.572 472.434 605.575C483.207 587.322 491.208 570.447 490.673 557.813C490.443 553.754 491.213 549.699 492.914 546.006C494.615 542.313 497.197 539.093 500.432 536.628C505.638 532.77 511.948 530.688 518.429 530.691V530.691C524.216 528.111 530.772 527.851 536.746 529.963C539.281 530.917 541.587 532.395 543.512 534.301C545.437 536.207 546.938 538.497 547.918 541.023C549.139 543.982 551.77 546.574 555.586 548.858C559.12 550.902 562 553.91 563.888 557.529C566.401 562.53 566.574 567.564 563.28 572.647C575.615 585.601 575.649 605.067 573.371 625.757Z" fill="#2F2E41"/>
<path d="M528.215 583.8C540.538 583.8 550.527 573.813 550.527 561.494C550.527 549.175 540.538 539.188 528.215 539.188C515.892 539.188 505.902 549.175 505.902 561.494C505.902 573.813 515.892 583.8 528.215 583.8Z" fill="#FFB8B8"/>
<path d="M538.84 609.824L512.809 612.48C514.205 597.264 514.755 583.224 512.809 572.647H538.84C533.896 589.486 534.33 601.488 538.84 609.824Z" fill="#FFB8B8"/>
<path d="M552.785 609.249C552.763 611.58 552.714 613.887 552.636 616.169C552.092 632.501 550.037 647.203 544.435 658.031C543.298 660.273 541.939 662.395 540.378 664.365C540.367 664.386 540.353 664.404 540.335 664.419C540.228 664.568 540.11 664.711 539.984 664.845C538.838 666.267 537.566 667.581 536.182 668.773L525.522 679.952L525.032 680.463L521.922 682.539L505.905 693.207L467.439 672.542L467.396 668.954L467.354 665.281C475.905 653.165 481.241 637.409 484.627 619.469C485.554 614.561 486.342 609.483 487.013 604.266C487.471 600.657 487.875 596.973 488.227 593.236C488.281 592.089 488.67 590.983 489.345 590.053C489.345 590.052 489.345 590.05 489.346 590.049C489.346 590.048 489.347 590.046 489.348 590.045C489.349 590.044 489.35 590.044 489.351 590.043C489.353 590.043 489.354 590.042 489.356 590.042C490.996 587.956 494.254 587.998 498.195 587.785C503.722 587.487 509.164 584.623 514.052 587.327C514.174 587.383 514.291 587.447 514.403 587.519L528.749 603.446L535.341 596.345L535.649 596.015L549.228 601.828C550.616 602.428 551.741 603.509 552.395 604.873C553.049 606.237 553.187 607.791 552.785 609.249V609.249Z" fill="#E6E6E6"/>
<path d="M522.507 687.532C522.508 690.247 521.995 692.938 520.995 695.463L517.055 705.407L482.06 707.537C481.687 707.558 481.315 707.568 480.952 707.568C477.433 707.492 474.082 706.051 471.606 703.549C469.13 701.048 467.723 697.683 467.683 694.165L467.438 672.541L467.396 668.954L480.132 674.351L492.55 667.687C493.227 667.397 493.92 667.149 494.627 666.941C495.546 666.65 496.486 666.426 497.438 666.271H497.449C497.907 666.196 498.365 666.132 498.823 666.09C504.086 665.562 509.359 666.991 513.636 670.103C516.136 671.913 518.211 674.246 519.717 676.938C519.832 677.123 519.935 677.315 520.026 677.513C520.873 679.099 521.51 680.789 521.921 682.538C522.309 684.175 522.505 685.85 522.507 687.532V687.532Z" fill="#2F2E41"/>
<path opacity="0.2" d="M512.543 623.897L517.198 645.249L545.48 669.572L520.512 644.08L512.543 623.897Z" fill="black"/>
<path opacity="0.2" d="M486.513 633.988L495.012 668.51L519.981 677.539L496.606 665.854L486.513 633.988Z" fill="black"/>
<path d="M555.043 562.822C538.598 555.258 520.006 553.102 503.512 561.229L505.637 542.109L541.762 536.267L555.043 562.822Z" fill="#2F2E41"/>
<path d="M687.235 730.831L566.312 710.064L567.794 702.76L687.235 730.831Z" fill="#3F3D56"/>
<path d="M586.483 714.626C585.507 715.538 584.333 716.213 583.054 716.596C581.774 716.98 580.423 717.063 579.106 716.838C577.789 716.613 576.542 716.086 575.463 715.299C574.383 714.513 573.5 713.487 572.883 712.302L564.871 696.924L568.059 690.02L585.234 701.009C586.346 701.72 587.28 702.675 587.966 703.803C588.651 704.93 589.07 706.198 589.191 707.512C589.311 708.826 589.13 710.149 588.661 711.382C588.191 712.615 587.446 713.725 586.483 714.626V714.626Z" fill="#FFB8B8"/>
<path d="M562.45 699.129L496.773 665.027C496.47 664.87 496.204 664.65 495.993 664.382C495.781 664.114 495.629 663.804 495.547 663.473L481.3 606.069C480.474 602.739 480.92 599.219 482.552 596.2C484.184 593.181 486.884 590.879 490.124 589.746L493.557 588.545C494.322 588.277 495.134 588.169 495.942 588.228C496.751 588.287 497.539 588.511 498.257 588.886C498.976 589.261 499.609 589.78 500.119 590.41C500.629 591.04 501.004 591.768 501.221 592.549L515.263 643.087C515.395 643.56 515.668 643.982 516.046 644.295L569.558 688.62C570.019 689.003 570.321 689.544 570.405 690.137C570.488 690.731 570.347 691.334 570.008 691.829L565.543 698.353C565.211 698.838 564.713 699.184 564.144 699.327C563.574 699.47 562.971 699.399 562.45 699.129V699.129Z" fill="#E6E6E6"/>
<path d="M674.201 734.612C674.782 734.725 675.384 734.605 675.876 734.277C676.368 733.948 676.71 733.439 676.828 732.86L678.04 726.797C678.156 726.217 678.037 725.614 677.708 725.121C677.38 724.629 676.869 724.287 676.289 724.171L658.736 720.663C658.156 720.548 657.553 720.668 657.061 720.997C656.569 721.325 656.227 721.835 656.109 722.415L654.898 728.477C654.84 728.765 654.84 729.061 654.897 729.348C654.954 729.636 655.067 729.909 655.229 730.153C655.392 730.397 655.601 730.606 655.845 730.769C656.088 730.933 656.362 731.046 656.649 731.104L674.201 734.612Z" fill="#E6E6E6"/>
</g>
<defs>
<clipPath id="clip0">
<rect width="1000" height="774" fill="white" transform="translate(0 113)"/>
</clipPath>
</defs>
</svg>
