<svg width="512" height="512" viewBox="0 0 512 512" fill="none" xmlns="http://www.w3.org/2000/svg">
<path d="M228.832 280.913L138.65 213.276C136.743 211.795 134.413 210.966 131.999 210.909C125.773 210.909 120.727 215.956 120.727 222.181C120.789 225.709 122.499 229.005 125.349 231.087L203.357 289.817L125.237 348.435C122.398 350.565 120.727 353.905 120.727 357.453C120.727 363.68 125.774 368.726 131.999 368.726C134.413 368.67 136.744 367.839 138.65 366.358L228.832 298.722C231.682 296.64 233.392 293.344 233.454 289.816C233.393 286.29 231.682 282.994 228.832 280.913Z" fill="#0366D6"/>
<path d="M458.91 8H53.0905C28.1878 8 8 28.1878 8 53.0905V458.909C8 483.812 28.1878 504 53.0905 504H458.909C483.812 504 504 483.812 504 458.91V53.0905C504 28.1878 483.812 8 458.91 8ZM481.454 458.91C481.454 471.361 471.36 481.455 458.909 481.455H53.0905C40.6391 481.455 30.5447 471.361 30.5447 458.91V53.0905C30.5447 40.6391 40.6391 30.5447 53.0905 30.5447H458.909C471.36 30.5447 481.454 40.6391 481.454 53.0905V458.91V458.91Z" fill="#0366D6"/>
<path d="M312.364 368.728H244.728C238.502 368.728 233.456 373.775 233.456 380C233.456 386.225 238.503 391.273 244.728 391.273H312.364C318.59 391.273 323.637 386.225 323.637 380C323.637 373.775 318.589 368.728 312.364 368.728Z" fill="#0366D6"/>
</svg>
