<svg width="512" height="512" viewBox="0 0 512 512" fill="none" xmlns="http://www.w3.org/2000/svg">
<path d="M227.956 281.716L134.865 211.898C132.897 210.369 130.491 209.513 128 209.454C121.573 209.454 116.364 214.664 116.364 221.09C116.428 224.732 118.193 228.134 121.135 230.283L201.659 290.908L121.019 351.417C118.089 353.615 116.364 357.063 116.364 360.726C116.364 367.153 121.574 372.362 128 372.362C130.491 372.304 132.898 371.447 134.865 369.918L227.956 300.1C230.898 297.951 232.663 294.549 232.727 290.907C232.664 287.267 230.898 283.865 227.956 281.716Z" fill="#525F7F"/>
<path d="M465.455 0H46.545C20.839 0 0 20.839 0 46.545V465.454C0 491.161 20.839 512 46.545 512H465.454C491.161 512 512 491.161 512 465.455V46.545C512 20.839 491.161 0 465.455 0ZM488.727 465.455C488.727 478.308 478.307 488.728 465.454 488.728H46.545C33.692 488.728 23.272 478.308 23.272 465.455V46.545C23.272 33.692 33.692 23.272 46.545 23.272H465.454C478.307 23.272 488.727 33.692 488.727 46.545V465.455V465.455Z" fill="#525F7F"/>
<path d="M314.182 372.364H244.364C237.937 372.364 232.728 377.574 232.728 384C232.728 390.426 237.938 395.636 244.364 395.636H314.182C320.609 395.636 325.818 390.426 325.818 384C325.818 377.574 320.608 372.364 314.182 372.364Z" fill="#525F7F"/>
</svg>
