<svg width="512" height="512" viewBox="0 0 512 512" fill="none" xmlns="http://www.w3.org/2000/svg">
<path d="M409.75 297.29H102.25L69.2178 363.355H99.0968V512H412.903V363.355H442.782L409.75 297.29ZM399.54 313.806L416.056 346.839H285.879L269.363 313.806H399.54ZM112.46 313.806H242.637L226.121 346.839H95.9436L112.46 313.806ZM396.387 495.484H264.258V437.677H247.742V495.484H115.613V363.355H236.331L247.742 340.528V412.903H264.258V340.528L275.669 363.355H396.387V495.484Z" fill="#0366D6"/>
<path d="M132.129 429.419H181.677V445.936H132.129V429.419Z" fill="#0366D6"/>
<path d="M132.129 462.452H181.677V478.968H132.129V462.452Z" fill="#0366D6"/>
<path d="M198.193 462.452H214.709V478.968H198.193V462.452Z" fill="#0366D6"/>
<path d="M217.863 134.311L256 124.589L294.137 134.303L297.125 93.3509L317.383 58.7461L281.552 43.238L256 11.6453L230.44 43.238L194.609 58.7461L214.867 93.3509L217.863 134.311ZM240.73 56.7743L256 37.9033L271.27 56.7824L293.714 66.5041L280.94 88.3267L279.105 113.44L256 107.553L232.895 113.432L231.06 88.3186L218.286 66.492L240.73 56.7743Z" fill="#0366D6"/>
<path d="M90.6733 151.165L102.673 130.677L81.4152 121.468L66.0644 102.484L50.7136 121.46L29.4556 130.669L41.4556 151.157L43.2298 175.593L66.0644 169.786L88.9072 175.601L90.6733 151.165ZM74.4878 146.125L73.8588 154.722L66.0644 152.742L58.2781 154.722L57.641 146.125L53.1249 138.403L60.9959 134.996L66.0644 128.742L71.1249 135.004L78.9959 138.415L74.4878 146.125Z" fill="#0366D6"/>
<path d="M470.544 151.165L482.544 130.677L461.286 121.468L445.935 102.484L430.584 121.46L409.326 130.669L421.326 151.157L423.1 175.593L445.935 169.786L468.778 175.601L470.544 151.165ZM454.358 146.125L453.729 154.722L445.935 152.742L438.149 154.722L437.52 146.125L433.004 138.403L440.875 134.996L445.935 128.742L450.996 135.004L458.866 138.415L454.358 146.125Z" fill="#0366D6"/>
<path d="M102.77 196.806C118.496 207.294 132.468 220.093 144.27 234.859L176.98 275.73L170.214 221.621C166.682 193.371 151.593 167.367 128.819 150.29L120.907 144.359L96.7017 192.758L102.77 196.806ZM126.573 169.968C140.536 183.181 150.008 200.77 153.254 219.798C142.823 207.548 130.988 196.633 117.944 187.226L126.573 169.968Z" fill="#0366D6"/>
<path d="M341.787 221.621L335.021 275.73L367.73 234.851C379.541 220.085 393.504 207.286 409.23 196.798L415.291 192.75L391.085 144.351L383.174 150.298C360.408 167.375 345.311 193.371 341.787 221.621V221.621ZM394.057 187.226C381.012 196.633 369.17 207.54 358.746 219.798C362 200.77 371.464 183.181 385.428 169.968L394.057 187.226Z" fill="#0366D6"/>
<path d="M289.032 280.774H305.548V246.173C305.548 206.508 319.528 167.895 344.931 137.415L332.238 126.843C304.375 160.282 289.032 202.661 289.032 246.173V280.774Z" fill="#0366D6"/>
<path d="M346.839 99.0967H363.355V115.613H346.839V99.0967Z" fill="#0366D6"/>
<path d="M371.613 66.0645H388.129V82.5806H371.613V66.0645Z" fill="#0366D6"/>
<path d="M206.452 280.774H222.968V246.173C222.968 202.653 207.625 160.282 179.77 126.843L167.077 137.415C192.472 167.895 206.452 206.508 206.452 246.173V280.774Z" fill="#0366D6"/>
<path d="M148.645 99.0967H165.161V115.613H148.645V99.0967Z" fill="#0366D6"/>
<path d="M123.871 66.0645H140.387V82.5806H123.871V66.0645Z" fill="#0366D6"/>
<path d="M247.742 140.387H264.258V156.903H247.742V140.387Z" fill="#0366D6"/>
<path d="M247.742 173.419H264.258V280.774H247.742V173.419Z" fill="#0366D6"/>
<path d="M478.968 222.968H495.484V239.484H478.968V222.968Z" fill="#0366D6"/>
<path d="M478.968 256H495.484V272.516H478.968V256Z" fill="#0366D6"/>
<path d="M495.483 239.484H512V256H495.483V239.484Z" fill="#0366D6"/>
<path d="M462.451 239.484H478.967V256H462.451V239.484Z" fill="#0366D6"/>
<path d="M454.193 0H470.71V16.5161H454.193V0Z" fill="#0366D6"/>
<path d="M454.193 33.0322H470.71V49.5484H454.193V33.0322Z" fill="#0366D6"/>
<path d="M470.71 16.5161H487.226V33.0322H470.71V16.5161Z" fill="#0366D6"/>
<path d="M437.678 16.5161H454.194V33.0322H437.678V16.5161Z" fill="#0366D6"/>
<path d="M16.5161 256H33.0322V272.516H16.5161V256Z" fill="#0366D6"/>
<path d="M16.5161 289.032H33.0322V305.548H16.5161V289.032Z" fill="#0366D6"/>
<path d="M33.0322 272.516H49.5484V289.032H33.0322V272.516Z" fill="#0366D6"/>
<path d="M0 272.516H16.5161V289.032H0V272.516Z" fill="#0366D6"/>
<path d="M16.5161 0H33.0322V16.5161H16.5161V0Z" fill="#0366D6"/>
<path d="M16.5161 33.0322H33.0322V49.5484H16.5161V33.0322Z" fill="#0366D6"/>
<path d="M33.0322 16.5161H49.5484V33.0322H33.0322V16.5161Z" fill="#0366D6"/>
<path d="M0 16.5161H16.5161V33.0322H0V16.5161Z" fill="#0366D6"/>
</svg>
