<svg width="512" height="512" viewBox="0 0 512 512" fill="none" xmlns="http://www.w3.org/2000/svg">
<path d="M202.667 469.333H153.909C151.525 460.16 143.243 453.333 133.333 453.333C123.424 453.333 115.141 460.16 112.757 469.333H59.9252L18.3838 448.56C16.7305 447.739 14.7678 447.824 13.1945 448.795C11.6265 449.771 10.6665 451.483 10.6665 453.333V496C10.6665 497.851 11.6265 499.563 13.1945 500.539C14.0532 501.067 15.0238 501.333 15.9998 501.333C16.8158 501.333 17.6318 501.147 18.3838 500.773L59.9252 480H112.757C115.141 489.173 123.424 496 133.333 496C143.243 496 151.525 489.173 153.909 480H202.667C205.611 480 208 477.611 208 474.667C208 471.723 205.611 469.333 202.667 469.333ZM21.3332 487.371V461.963L46.7412 474.667L21.3332 487.371ZM133.333 485.333C127.451 485.333 122.667 480.549 122.667 474.667C122.667 468.784 127.451 464 133.333 464C139.216 464 144 468.784 144 474.667C144 480.549 139.216 485.333 133.333 485.333Z" fill="#0366D6"/>
<path d="M448 373.333H404.576C402.192 364.16 393.909 357.333 384 357.333C374.091 357.333 365.808 364.16 363.424 373.333H239.243C236.859 364.16 228.576 357.333 218.667 357.333C208.757 357.333 200.475 364.16 198.091 373.333H140.875L147.771 366.437C149.856 364.352 149.856 360.981 147.771 358.896C145.685 356.811 142.315 356.811 140.229 358.896L125.792 373.333H63.9998C52.5758 373.333 41.8772 368.891 33.8398 360.8C25.7758 352.789 21.3332 342.091 21.3332 330.667C21.3332 307.141 40.4745 288 63.9998 288H128C130.944 288 133.333 285.611 133.333 282.667C133.333 279.723 130.944 277.333 128 277.333H63.9998C34.5918 277.333 10.6665 301.259 10.6665 330.667C10.6665 344.949 16.2238 358.341 26.2985 368.341C36.3252 378.443 49.7172 384 63.9998 384H125.792L140.229 398.437C141.269 399.477 142.635 400 144 400C145.365 400 146.731 399.477 147.771 398.437C149.856 396.352 149.856 392.981 147.771 390.896L140.875 384H198.091C200.475 393.173 208.757 400 218.667 400C228.576 400 236.859 393.173 239.243 384H363.424C365.808 393.173 374.091 400 384 400C393.909 400 402.192 393.173 404.576 384H448C471.525 384 490.667 403.141 490.667 426.667C490.667 438.091 486.224 448.789 478.133 456.827C470.123 464.891 459.424 469.333 448 469.333H423.541L409.104 454.896C407.019 452.811 403.648 452.811 401.563 454.896C399.477 456.981 399.477 460.352 401.563 462.437L408.459 469.333H319.243C316.859 460.16 308.576 453.333 298.667 453.333C288.757 453.333 280.475 460.16 278.091 469.333H245.333C242.389 469.333 240 471.723 240 474.667C240 477.611 242.389 480 245.333 480H278.091C280.475 489.173 288.757 496 298.667 496C308.576 496 316.859 489.173 319.243 480H408.459L401.563 486.896C399.477 488.981 399.477 492.352 401.563 494.437C402.603 495.477 403.968 496 405.333 496C406.699 496 408.064 495.477 409.104 494.437L423.541 480H448C462.283 480 475.675 474.443 485.675 464.368C495.776 454.341 501.333 440.949 501.333 426.667C501.333 397.259 477.408 373.333 448 373.333V373.333ZM218.667 389.333C212.784 389.333 208 384.549 208 378.667C208 372.784 212.784 368 218.667 368C224.549 368 229.333 372.784 229.333 378.667C229.333 384.549 224.549 389.333 218.667 389.333ZM384 389.333C378.117 389.333 373.333 384.549 373.333 378.667C373.333 372.784 378.117 368 384 368C389.883 368 394.667 372.784 394.667 378.667C394.667 384.549 389.883 389.333 384 389.333ZM298.667 485.333C292.784 485.333 288 480.549 288 474.667C288 468.784 292.784 464 298.667 464C304.549 464 309.333 468.784 309.333 474.667C309.333 480.549 304.549 485.333 298.667 485.333Z" fill="#0366D6"/>
<path d="M63.9998 192H125.792L140.229 206.437C141.269 207.477 142.635 208 144 208C145.365 208 146.731 207.477 147.771 206.437C149.856 204.352 149.856 200.981 147.771 198.896L140.875 192H187.424C189.808 201.173 198.091 208 208 208C217.909 208 226.192 201.173 228.576 192H288C290.944 192 293.333 189.611 293.333 186.667C293.333 183.723 290.944 181.333 288 181.333H228.576C226.192 172.16 217.909 165.333 208 165.333C198.091 165.333 189.808 172.16 187.424 181.333H140.875L147.771 174.437C149.856 172.352 149.856 168.981 147.771 166.896C145.685 164.811 142.315 164.811 140.229 166.896L125.792 181.333H63.9998C52.5758 181.333 41.8772 176.891 33.8398 168.8C25.7758 160.789 21.3332 150.091 21.3332 138.667C21.3332 115.141 40.4745 96 63.9998 96H107.424C109.808 105.173 118.091 112 128 112C137.909 112 146.192 105.173 148.576 96H221.792L214.896 102.896C212.811 104.981 212.811 108.352 214.896 110.437C215.936 111.477 217.301 112 218.667 112C220.032 112 221.397 111.477 222.437 110.437L236.875 96H282.667V137.707C282.667 140.197 284.389 142.357 286.816 142.907L361.483 159.867C361.877 159.957 362.272 160 362.667 160C363.061 160 363.456 159.957 363.851 159.867L438.517 142.907C440.944 142.352 442.667 140.197 442.667 137.707V56.6186L474.667 49.344V100.235L459.099 136.56C458.24 138.565 458.688 140.891 460.229 142.432L476.229 158.432C477.269 159.477 478.635 160 480 160C481.365 160 482.731 159.477 483.771 158.437L499.771 142.437C501.312 140.896 501.76 138.571 500.901 136.565L485.333 100.24V42.6666C485.333 40.176 483.611 38.016 481.184 37.4666L363.851 10.8C363.072 10.624 362.267 10.624 361.488 10.8L244.155 37.4666C241.723 38.016 240 40.176 240 42.6666C240 45.1573 241.723 47.3173 244.149 47.8666L361.483 74.5333C361.877 74.624 362.272 74.6666 362.667 74.6666C363.061 74.6666 363.456 74.624 363.851 74.5333L432 59.0453V112H400C397.056 112 394.667 114.389 394.667 117.333C394.667 120.277 397.056 122.667 400 122.667H432V133.445L362.667 149.195L293.333 133.445V74.6666C293.333 71.7226 290.944 69.3333 288 69.3333C285.056 69.3333 282.667 71.7226 282.667 74.6666V85.3333H236.875L222.437 70.896C220.352 68.8106 216.981 68.8106 214.896 70.896C212.811 72.9813 212.811 76.352 214.896 78.4373L221.792 85.3333H148.576C146.192 76.16 137.909 69.3333 128 69.3333C118.091 69.3333 109.808 76.16 107.424 85.3333H63.9998C34.5918 85.3333 10.6665 109.259 10.6665 138.667C10.6665 152.949 16.2238 166.341 26.2985 176.341C36.3252 186.443 49.7172 192 63.9998 192V192ZM208 176C213.883 176 218.667 180.784 218.667 186.667C218.667 192.549 213.883 197.333 208 197.333C202.117 197.333 197.333 192.549 197.333 186.667C197.333 180.784 202.117 176 208 176ZM480 147.125L470.325 137.451L480 114.875L489.675 137.451L480 147.125ZM362.667 63.8666L269.397 42.6666L362.667 21.4666L455.936 42.6666L362.667 63.8666ZM128 80C133.883 80 138.667 84.784 138.667 90.6666C138.667 96.5493 133.883 101.333 128 101.333C122.117 101.333 117.333 96.5493 117.333 90.6666C117.333 84.784 122.117 80 128 80V80Z" fill="#0366D6"/>
<path d="M401.563 302.437C402.603 303.477 403.968 304 405.333 304C406.699 304 408.064 303.477 409.104 302.437L423.541 288H448C462.283 288 475.675 282.443 485.675 272.368C495.776 262.341 501.333 248.949 501.333 234.667C501.333 205.259 477.408 181.333 448 181.333H393.909C391.525 172.16 383.243 165.333 373.333 165.333C363.424 165.333 355.141 172.16 352.757 181.333H330.667C327.723 181.333 325.333 183.723 325.333 186.667C325.333 189.611 327.723 192 330.667 192H352.757C355.141 201.173 363.424 208 373.333 208C383.243 208 391.525 201.173 393.909 192H448C471.525 192 490.667 211.141 490.667 234.667C490.667 246.091 486.224 256.789 478.133 264.827C470.123 272.891 459.424 277.333 448 277.333H423.541L409.104 262.896C407.019 260.811 403.648 260.811 401.563 262.896C399.477 264.981 399.477 268.352 401.563 270.437L408.459 277.333H308.576C306.192 268.16 297.909 261.333 288 261.333C278.091 261.333 269.808 268.16 267.424 277.333H213.333C210.389 277.333 208 279.723 208 282.667C208 285.611 210.389 288 213.333 288H267.424C269.808 297.173 278.091 304 288 304C297.909 304 306.192 297.173 308.576 288H408.459L401.563 294.896C399.477 296.981 399.477 300.352 401.563 302.437ZM373.333 197.333C367.451 197.333 362.667 192.549 362.667 186.667C362.667 180.784 367.451 176 373.333 176C379.216 176 384 180.784 384 186.667C384 192.549 379.216 197.333 373.333 197.333ZM288 293.333C282.117 293.333 277.333 288.549 277.333 282.667C277.333 276.784 282.117 272 288 272C293.883 272 298.667 276.784 298.667 282.667C298.667 288.549 293.883 293.333 288 293.333Z" fill="#0366D6"/>
<path d="M309.333 192C312.279 192 314.667 189.612 314.667 186.667C314.667 183.721 312.279 181.333 309.333 181.333C306.388 181.333 304 183.721 304 186.667C304 189.612 306.388 192 309.333 192Z" fill="#0366D6"/>
<path d="M224 480C226.945 480 229.333 477.612 229.333 474.667C229.333 471.721 226.945 469.333 224 469.333C221.054 469.333 218.667 471.721 218.667 474.667C218.667 477.612 221.054 480 224 480Z" fill="#0366D6"/>
<path d="M149.333 288C152.279 288 154.667 285.612 154.667 282.667C154.667 279.721 152.279 277.333 149.333 277.333C146.388 277.333 144 279.721 144 282.667C144 285.612 146.388 288 149.333 288Z" fill="#0366D6"/>
<path d="M170.667 288C173.612 288 176 285.612 176 282.667C176 279.721 173.612 277.333 170.667 277.333C167.721 277.333 165.333 279.721 165.333 282.667C165.333 285.612 167.721 288 170.667 288Z" fill="#0366D6"/>
<path d="M192 288C194.945 288 197.333 285.612 197.333 282.667C197.333 279.721 194.945 277.333 192 277.333C189.054 277.333 186.667 279.721 186.667 282.667C186.667 285.612 189.054 288 192 288Z" fill="#0366D6"/>
</svg>
