<svg width="1000" height="1000" viewBox="0 0 1000 1000" fill="none" xmlns="http://www.w3.org/2000/svg">
<path d="M1000 885.899C1000.31 917.885 798.669 920.816 794.828 885.901C794.522 853.918 996.159 850.987 1000 885.899Z" fill="#E6E6E6"/>
<path d="M842.241 774.86L827.255 783.03L836.792 814.351L851.776 815.713L859.951 798.01L842.241 774.86Z" fill="#9F616A"/>
<path d="M888.559 837.501V852.48L911.717 851.119L911.395 838.782L888.559 837.501Z" fill="#9F616A"/>
<path d="M836.792 595.106L844.965 697.24L870.849 847.033L911.718 841.586L898.095 723.112L903.545 614.172L836.792 595.106Z" fill="#2F2E41"/>
<path d="M945.775 518.848L847.69 520.21L836.792 595.107L903.544 626.428L919.892 686.346L836.792 774.86L869.487 815.714C869.487 815.714 915.805 753.072 949.862 717.666C983.92 682.26 967.572 574.681 967.572 574.681L945.775 518.848Z" fill="#2F2E41"/>
<path d="M887.197 325.476C903.749 325.476 917.167 312.063 917.167 295.517C917.167 278.972 903.749 265.559 887.197 265.559C870.644 265.559 857.226 278.972 857.226 295.517C857.226 312.063 870.644 325.476 887.197 325.476Z" fill="#9F616A"/>
<path d="M876.298 315.944V345.903L896.732 378.586C896.732 378.586 928.065 355.436 921.254 349.989C914.442 344.541 913.08 302.327 913.08 302.327L876.298 315.944Z" fill="#9F616A"/>
<path d="M876.298 340.456L855.863 364.967L864.038 535.188L928.065 533.826L938.964 385.394L925.341 347.265L915.996 334.556L899.457 359.52L876.298 340.456Z" fill="#D0CDE1"/>
<path d="M843.603 428.971L828.618 486.165L843.603 543.36L819.081 576.042L797.285 472.548C797.285 472.548 813.632 388.118 814.995 378.586C816.357 369.053 819.081 367.691 819.081 367.691L829.98 369.053L843.603 428.971Z" fill="#2F2E41"/>
<path d="M952.586 450.758L962.122 468.463L964.848 498.421L959.398 532.465L978.47 563.786L997.542 477.994L977.108 367.69H968.934L952.586 450.758Z" fill="#2F2E41"/>
<path d="M836.791 773.499C836.791 773.499 817.719 778.946 810.908 780.307C804.096 781.669 814.995 807.543 814.995 807.543C814.995 807.543 821.806 842.949 823.168 849.758C824.531 856.566 834.067 879.716 846.327 882.44C858.588 885.163 850.414 834.778 850.414 834.778C850.414 834.778 855.863 818.437 855.863 812.99C855.863 807.543 847.69 810.266 847.69 810.266C825.893 807.543 836.791 773.499 836.791 773.499Z" fill="#2F2E41"/>
<path d="M881.748 878.355C883.11 886.525 880.385 886.525 902.182 889.249C923.979 891.972 918.53 874.269 918.53 874.269C917.618 865.924 915.791 857.704 913.08 849.757C908.993 838.863 887.197 852.481 887.197 852.481C887.197 852.481 880.385 870.184 881.748 878.355Z" fill="#2F2E41"/>
<path d="M913.116 303.277L913.826 315.388C913.826 315.388 922.616 295.518 923.979 275.091C925.341 254.665 902.182 250.579 888.559 249.217C874.936 247.856 851.777 257.388 851.777 268.282C851.777 279.176 876.298 276.453 885.834 273.729C895.37 271.006 899.457 294.156 899.457 294.156L904.906 295.518L913.116 303.277Z" fill="#2F2E41"/>
<path d="M868.257 350.099L876.298 340.456L899.457 359.52L876.298 375.862L868.257 350.099Z" fill="#D0CDE1"/>
<path d="M925.341 347.265L915.805 335.009L899.457 359.521L919.892 374.5L925.341 347.265Z" fill="#D0CDE1"/>
<path d="M839.516 448.036L844.965 499.783L834.067 531.104L827.255 561.063C827.255 561.063 827.255 589.66 854.501 591.022C881.747 592.383 904.906 505.23 904.906 505.23C904.906 505.23 908.993 524.295 911.718 535.189C914.442 546.083 960.76 589.66 960.76 589.66C960.76 589.66 971.659 588.298 981.195 566.51C990.731 544.722 962.123 524.295 962.123 524.295L953.949 495.698L956.674 460.292L975.746 367.692L919.21 338.414L925.341 416.715L904.906 477.995L874.255 342.499L864.037 349.989L820.444 367.692L839.516 448.036Z" fill="#2F2E41"/>
<path d="M301.123 654.006C298.43 653.985 295.705 653.966 293.029 653.883L293.112 651.186C295.76 651.268 298.469 651.304 301.124 651.307C303.791 651.307 306.51 651.264 309.206 651.177L309.293 653.873C306.567 653.961 303.819 654.006 301.123 654.006ZM276.801 652.866C271.427 652.357 265.999 651.668 260.67 650.818L261.096 648.154C266.368 648.995 271.738 649.677 277.055 650.18L276.801 652.866ZM325.519 652.837L325.262 650.151C330.578 649.643 335.947 648.954 341.219 648.105L341.649 650.769C336.319 651.627 330.892 652.323 325.519 652.837H325.519ZM244.702 647.739C239.44 646.546 234.145 645.165 228.966 643.636L229.731 641.048C234.855 642.562 240.093 643.927 245.299 645.106L244.702 647.739ZM357.612 647.672L357.012 645.042C362.23 643.852 367.467 642.48 372.576 640.963L373.344 643.551C368.18 645.084 362.887 646.47 357.612 647.672H357.612ZM213.526 638.528C208.448 636.664 203.368 634.611 198.426 632.425L199.519 629.958C204.407 632.119 209.433 634.151 214.456 635.996L213.526 638.528ZM388.777 638.423L387.843 635.89C392.836 634.052 397.844 632.022 402.729 629.855L403.824 632.322C398.886 634.512 393.823 636.565 388.777 638.423H388.777ZM183.756 625.362C178.978 622.869 174.206 620.181 169.575 617.374L170.975 615.066C175.557 617.845 180.278 620.503 185.005 622.969L183.756 625.362ZM418.453 625.263L417.203 622.872C421.92 620.406 426.63 617.749 431.2 614.972L432.602 617.278C427.982 620.085 423.222 622.77 418.453 625.263H418.453ZM155.938 608.496C151.512 605.409 147.126 602.134 142.9 598.766L144.583 596.655C148.765 599.989 153.105 603.228 157.483 606.282L155.938 608.496ZM446.216 608.4L444.669 606.189C449.047 603.13 453.381 599.892 457.551 596.562L459.236 598.67C455.021 602.035 450.64 605.308 446.216 608.4V608.4ZM130.511 588.224C126.51 584.593 122.577 580.789 118.822 576.919L120.76 575.04C124.475 578.869 128.367 582.633 132.326 586.226L130.511 588.224ZM471.613 588.13L469.796 586.132C473.745 582.547 477.634 578.781 481.355 574.943L483.293 576.819C479.533 580.7 475.603 584.505 471.613 588.13V588.13ZM107.879 564.897C104.375 560.791 100.96 556.52 97.7259 552.204L99.8871 550.586C103.087 554.857 106.466 559.083 109.932 563.144L107.879 564.897ZM494.234 564.785L492.18 563.035C495.646 558.97 499.025 554.739 502.225 550.462L504.386 552.077C501.153 556.4 497.738 560.676 494.234 564.785V564.785ZM88.4057 538.89C85.4523 534.369 82.6103 529.7 79.9581 525.014L82.3084 523.685C84.9316 528.322 87.744 532.942 90.6664 537.414L88.4057 538.89ZM513.71 538.744L511.448 537.271C514.372 532.789 517.183 528.161 519.808 523.514L522.16 524.84C519.507 529.538 516.664 534.216 513.71 538.744V538.744ZM72.4194 510.627C70.0704 505.77 67.8513 500.779 65.8239 495.79L68.3245 494.776C70.3308 499.709 72.5262 504.648 74.8502 509.452L72.4194 510.627ZM529.701 510.416L527.27 509.244C529.593 504.432 531.789 499.48 533.798 494.523L536.3 495.535C534.27 500.546 532.05 505.553 529.701 510.416V510.416ZM60.1887 480.541C58.481 475.415 56.9209 470.172 55.5513 464.957L58.1626 464.272C59.5171 469.43 61.0607 474.618 62.7499 479.687L60.1887 480.541ZM541.924 480.255L539.362 479.406C541.041 474.342 542.58 469.154 543.931 463.984L546.543 464.667C545.176 469.893 543.622 475.137 541.924 480.255V480.255ZM51.9296 449.11C50.8981 443.816 50.0255 438.418 49.3354 433.064L52.0127 432.719C52.6955 438.016 53.5589 443.356 54.5792 448.594L51.9296 449.11ZM550.146 448.814L547.496 448.303C548.509 443.066 549.367 437.723 550.043 432.422L552.722 432.765C552.037 438.122 551.17 443.522 550.146 448.814V448.814ZM47.7747 416.885C47.4287 411.507 47.2501 406.04 47.2441 400.636L49.9438 400.633C49.9497 405.98 50.1263 411.389 50.4691 416.711L47.7747 416.885ZM554.264 416.584L551.569 416.412C551.906 411.096 552.076 405.687 552.076 400.338L552.074 399.747H554.774L554.775 400.329C554.775 405.743 554.603 411.209 554.264 416.584ZM50.4315 384.558L47.7371 384.392C48.0719 379.002 48.5841 373.558 49.2596 368.208L51.9382 368.545C51.2692 373.84 50.7624 379.226 50.4315 384.558ZM551.533 383.672C551.182 378.338 550.656 372.953 549.969 367.667L552.645 367.319C553.34 372.662 553.872 378.104 554.227 383.496L551.533 383.672ZM54.4665 352.665L51.8156 352.155C52.8339 346.858 54.0401 341.524 55.3991 336.299L58.0118 336.978C56.6672 342.147 55.4742 347.424 54.4665 352.665ZM547.382 351.794C546.353 346.551 545.141 341.278 543.78 336.12L546.39 335.432C547.767 340.646 548.991 345.976 550.031 351.275L547.382 351.794ZM62.5634 321.552L59.9995 320.706C61.6941 315.578 63.5804 310.435 65.6071 305.418L68.1103 306.428C66.1053 311.391 64.2395 316.48 62.5634 321.552ZM539.177 320.711C537.482 315.645 535.601 310.572 533.586 305.63L536.085 304.611C538.123 309.607 540.025 314.735 541.737 319.854L539.177 320.711ZM74.6221 291.697L72.1888 290.527C74.5305 285.66 77.0627 280.805 79.7143 276.096L82.0672 277.42C79.4434 282.078 76.9388 286.882 74.6221 291.697ZM527.043 290.961C524.718 286.169 522.204 281.383 519.568 276.737L521.917 275.406C524.581 280.102 527.122 284.94 529.471 289.784L527.043 290.961ZM90.4113 263.652L88.148 262.18C91.0922 257.657 94.2235 253.167 97.4544 248.836L99.6188 250.449C96.4222 254.734 93.3238 259.176 90.4113 263.652ZM511.194 263.017C508.272 258.557 505.166 254.129 501.957 249.856L504.116 248.237C507.359 252.556 510.5 257.031 513.453 261.539L511.194 263.017ZM109.649 237.865L107.593 236.117C111.089 232.006 114.765 227.952 118.518 224.071L120.459 225.946C116.746 229.787 113.109 233.797 109.649 237.865ZM491.897 237.309C488.426 233.252 484.777 229.254 481.055 225.425L482.99 223.544C486.753 227.414 490.44 231.455 493.948 235.555L491.897 237.309ZM132.005 214.742L130.187 212.747C134.182 209.109 138.342 205.557 142.551 202.191L144.238 204.298C140.073 207.629 135.957 211.143 132.005 214.742V214.742ZM469.474 214.252C465.516 210.67 461.389 207.166 457.205 203.839L458.887 201.727C463.114 205.09 467.286 208.631 471.286 212.252L469.474 214.252ZM157.109 194.656L155.561 192.446C159.978 189.351 164.555 186.36 169.164 183.553L170.568 185.858C166.008 188.635 161.48 191.595 157.109 194.656ZM444.295 194.226C439.9 191.168 435.357 188.218 430.792 185.457L432.19 183.148C436.803 185.939 441.396 188.92 445.837 192.011L444.295 194.226ZM184.557 177.941L183.303 175.551C188.075 173.048 192.995 170.667 197.923 168.474L199.021 170.939C194.145 173.109 189.279 175.465 184.557 177.941ZM416.752 177.571C412.012 175.104 407.126 172.759 402.231 170.601L403.321 168.132C408.269 170.313 413.207 172.683 417.999 175.176L416.752 177.571ZM213.9 164.886L212.963 162.355C218.025 160.483 223.215 158.752 228.39 157.209L229.161 159.796C224.041 161.321 218.907 163.034 213.9 164.886H213.9ZM387.286 164.58C382.269 162.745 377.128 161.05 372.007 159.544L372.769 156.955C377.945 158.478 383.142 160.191 388.214 162.046L387.286 164.58ZM244.719 155.701L244.117 153.071C249.369 151.868 254.739 150.82 260.077 149.954L260.509 152.618C255.228 153.474 249.915 154.511 244.719 155.701ZM356.434 155.505C351.228 154.332 345.912 153.314 340.633 152.477L341.056 149.811C346.392 150.657 351.765 151.687 357.027 152.872L356.434 155.505ZM276.464 150.552L276.203 147.867C281.563 147.347 287.022 146.992 292.429 146.812L292.518 149.51C287.168 149.687 281.767 150.039 276.464 150.552V150.552ZM324.67 150.469C319.359 149.973 313.956 149.641 308.613 149.482L308.693 146.785C314.093 146.945 319.554 147.281 324.921 147.782L324.67 150.469Z" fill="#D0CDE1"/>
<path d="M291.561 216.834C326.598 216.834 355.002 188.441 355.002 153.417C355.002 118.393 326.598 90 291.561 90C256.523 90 228.119 118.393 228.119 153.417C228.119 188.441 256.523 216.834 291.561 216.834Z" fill="#1e86fc"/>
<path d="M537.228 389.544C572.266 389.544 600.67 361.151 600.67 326.127C600.67 291.103 572.266 262.71 537.228 262.71C502.19 262.71 473.787 291.103 473.787 326.127C473.787 361.151 502.19 389.544 537.228 389.544Z" fill="#1e86fc"/>
<path d="M460.288 654.006C495.326 654.006 523.73 625.613 523.73 590.589C523.73 555.565 495.326 527.172 460.288 527.172C425.25 527.172 396.847 555.565 396.847 590.589C396.847 625.613 425.25 654.006 460.288 654.006Z" fill="#1e86fc"/>
<path d="M155.229 664.8C190.267 664.8 218.671 636.407 218.671 601.383C218.671 566.359 190.267 537.966 155.229 537.966C120.191 537.966 91.7876 566.359 91.7876 601.383C91.7876 636.407 120.191 664.8 155.229 664.8Z" fill="#1e86fc"/>
<path d="M63.4415 389.544C98.4792 389.544 126.883 361.151 126.883 326.127C126.883 291.103 98.4792 262.71 63.4415 262.71C28.4037 262.71 0 291.103 0 326.127C0 361.151 28.4037 389.544 63.4415 389.544Z" fill="#1e86fc"/>
<path d="M318.748 148.361H296.619C294.607 148.361 292.677 147.562 291.254 146.14C289.831 144.717 289.032 142.788 289.032 140.777V118.657C289.032 118.574 289.016 118.492 288.984 118.415C288.952 118.338 288.906 118.269 288.847 118.21C288.788 118.151 288.719 118.105 288.642 118.073C288.565 118.041 288.483 118.025 288.4 118.025H273.858C271.175 118.025 268.602 119.09 266.705 120.987C264.808 122.883 263.742 125.455 263.742 128.137V178.697C263.742 181.379 264.808 183.951 266.705 185.847C268.602 187.744 271.175 188.809 273.858 188.809H309.264C311.947 188.809 314.52 187.744 316.417 185.847C318.314 183.951 319.38 181.379 319.38 178.697V148.993C319.38 148.91 319.364 148.828 319.332 148.751C319.3 148.674 319.254 148.605 319.195 148.546C319.136 148.487 319.066 148.441 318.99 148.409C318.913 148.377 318.831 148.361 318.748 148.361V148.361ZM304.206 173.641H278.916C278.245 173.641 277.602 173.375 277.128 172.901C276.654 172.427 276.387 171.784 276.387 171.113C276.387 170.443 276.654 169.8 277.128 169.326C277.602 168.851 278.245 168.585 278.916 168.585H304.206C304.877 168.585 305.52 168.851 305.994 169.326C306.469 169.8 306.735 170.443 306.735 171.113C306.735 171.784 306.469 172.427 305.994 172.901C305.52 173.375 304.877 173.641 304.206 173.641ZM304.206 161.001H278.916C278.245 161.001 277.602 160.735 277.128 160.261C276.654 159.787 276.387 159.144 276.387 158.473C276.387 157.803 276.654 157.16 277.128 156.686C277.602 156.211 278.245 155.945 278.916 155.945H304.206C304.877 155.945 305.52 156.211 305.994 156.686C306.469 157.16 306.735 157.803 306.735 158.473C306.735 159.144 306.469 159.787 305.994 160.261C305.52 160.735 304.877 161.001 304.206 161.001Z" fill="white"/>
<path d="M317.36 142.766L294.629 120.044C294.585 120 294.528 119.97 294.467 119.958C294.406 119.946 294.343 119.952 294.285 119.976C294.228 120 294.178 120.04 294.144 120.092C294.109 120.144 294.09 120.205 294.09 120.267V140.777C294.09 141.447 294.356 142.09 294.831 142.564C295.305 143.039 295.948 143.305 296.619 143.305H317.137C317.199 143.305 317.26 143.286 317.312 143.251C317.364 143.216 317.404 143.167 317.428 143.11C317.451 143.052 317.458 142.989 317.446 142.928C317.434 142.866 317.404 142.81 317.36 142.766L317.36 142.766Z" fill="white"/>
<path d="M469.464 578.096C468.687 578.096 467.933 578.366 467.332 578.86C466.731 579.353 466.32 580.04 466.168 580.803C466.017 581.565 466.135 582.357 466.502 583.042C466.869 583.728 467.462 584.265 468.181 584.562C468.9 584.859 469.699 584.898 470.444 584.672C471.188 584.446 471.831 583.969 472.263 583.323C472.694 582.676 472.889 581.899 472.812 581.126C472.735 580.352 472.393 579.629 471.843 579.079C471.53 578.767 471.159 578.52 470.751 578.351C470.343 578.182 469.906 578.095 469.464 578.096Z" fill="white"/>
<path d="M488.182 564.656V564.645C488.076 564.178 487.841 563.75 487.504 563.41C487.167 563.069 486.742 562.83 486.276 562.718C482.522 561.803 476.617 562.779 470.073 565.398C463.78 567.843 458.022 571.488 453.12 576.129C451.781 577.46 450.537 578.883 449.397 580.389C446.88 580.215 444.356 580.62 442.019 581.574C434.746 584.773 432.669 592.962 432.116 596.324C432.035 596.802 432.067 597.291 432.207 597.755C432.347 598.219 432.593 598.644 432.924 598.997C433.256 599.35 433.664 599.622 434.118 599.792C434.572 599.962 435.059 600.025 435.541 599.976H435.557L443.659 599.092C443.669 599.195 443.681 599.289 443.69 599.376C443.794 600.363 444.234 601.284 444.937 601.985L448.891 605.941C449.591 606.644 450.512 607.085 451.5 607.188L451.771 607.217L450.889 615.307V615.323C450.846 615.734 450.885 616.15 451.003 616.546C451.121 616.942 451.316 617.311 451.577 617.632C451.838 617.953 452.159 618.219 452.523 618.416C452.887 618.612 453.286 618.735 453.697 618.778C453.794 618.788 453.891 618.794 453.989 618.795C454.164 618.795 454.339 618.78 454.512 618.752C457.894 618.208 466.082 616.156 469.274 608.847C470.22 606.519 470.627 604.008 470.464 601.501C471.977 600.364 473.406 599.12 474.741 597.78C479.381 592.926 483.031 587.215 485.488 580.967C488.094 574.499 489.075 568.552 488.182 564.656ZM474.696 586.677C473.661 587.713 472.342 588.418 470.906 588.704C469.47 588.991 467.982 588.845 466.629 588.286C465.276 587.726 464.119 586.778 463.305 585.562C462.491 584.345 462.056 582.914 462.055 581.451C462.054 579.987 462.488 578.556 463.301 577.339C464.113 576.121 465.269 575.172 466.622 574.611C467.974 574.051 469.463 573.903 470.899 574.188C472.335 574.473 473.654 575.177 474.69 576.211L474.696 576.217C476.083 577.583 476.871 579.445 476.886 581.391C476.901 583.338 476.141 585.211 474.774 586.599L474.696 586.677Z" fill="white"/>
<path d="M448.437 607.014C447.95 606.953 447.457 607.073 447.052 607.35C446.247 607.9 445.438 608.444 444.622 608.974C444.267 609.202 443.847 609.304 443.427 609.264C443.008 609.225 442.614 609.045 442.309 608.755C442.003 608.464 441.805 608.079 441.745 607.663C441.684 607.246 441.766 606.821 441.976 606.456L443.507 603.811C443.726 603.491 443.847 603.115 443.858 602.728C443.868 602.34 443.766 601.958 443.565 601.627C443.363 601.296 443.07 601.03 442.721 600.861C442.372 600.692 441.982 600.627 441.597 600.675C439.898 600.889 438.319 601.663 437.109 602.873C436.648 603.335 435.246 604.738 434.491 610.083C434.276 611.619 434.141 613.164 434.086 614.714C434.079 614.978 434.124 615.241 434.219 615.488C434.314 615.735 434.457 615.961 434.639 616.153C434.821 616.345 435.04 616.499 435.282 616.606C435.523 616.714 435.784 616.773 436.049 616.779C436.066 616.78 436.084 616.78 436.101 616.78H436.151C437.703 616.725 439.25 616.591 440.787 616.377C446.137 615.621 447.54 614.219 448.001 613.758C449.218 612.547 449.99 610.961 450.192 609.257C450.257 608.727 450.108 608.193 449.779 607.772C449.45 607.352 448.968 607.079 448.437 607.014V607.014Z" fill="white"/>
<path d="M133.396 635.844H128.799C127.885 635.844 127.008 635.481 126.361 634.834C125.715 634.188 125.352 633.311 125.352 632.397V611.721C125.352 610.807 125.715 609.931 126.361 609.284C127.008 608.638 127.885 608.275 128.799 608.275H133.396C134.31 608.275 135.187 608.638 135.833 609.284C136.48 609.931 136.843 610.807 136.843 611.721V632.397C136.843 633.311 136.48 634.188 135.833 634.834C135.187 635.481 134.31 635.844 133.396 635.844V635.844Z" fill="white"/>
<path d="M165.571 635.844H160.975C160.06 635.844 159.184 635.481 158.537 634.834C157.891 634.188 157.527 633.312 157.527 632.398V597.937C157.527 597.023 157.891 596.146 158.537 595.5C159.184 594.854 160.06 594.491 160.975 594.491H165.571C166.486 594.491 167.363 594.854 168.009 595.5C168.656 596.146 169.019 597.023 169.019 597.937V632.398C169.019 633.312 168.656 634.188 168.009 634.834C167.363 635.481 166.486 635.844 165.571 635.844V635.844Z" fill="white"/>
<path d="M181.659 635.844H177.063C176.148 635.844 175.271 635.481 174.625 634.835C173.978 634.188 173.615 633.312 173.615 632.398V581.855C173.615 580.941 173.978 580.065 174.625 579.419C175.271 578.772 176.148 578.409 177.063 578.409H181.659C182.574 578.409 183.45 578.772 184.097 579.419C184.743 580.065 185.107 580.941 185.107 581.855V632.398C185.107 633.312 184.743 634.188 184.097 634.835C183.45 635.481 182.574 635.844 181.659 635.844V635.844Z" fill="white"/>
<path d="M149.483 635.844H144.887C143.973 635.844 143.096 635.481 142.449 634.835C141.803 634.188 141.439 633.312 141.439 632.398V570.368C141.439 569.454 141.803 568.578 142.449 567.932C143.096 567.285 143.973 566.922 144.887 566.922H149.483C150.398 566.922 151.275 567.285 151.921 567.932C152.568 568.578 152.931 569.454 152.931 570.368V632.398C152.931 632.85 152.842 633.299 152.668 633.717C152.495 634.135 152.241 634.515 151.921 634.835C151.601 635.155 151.221 635.408 150.803 635.582C150.384 635.755 149.936 635.844 149.483 635.844V635.844Z" fill="white"/>
<path d="M540.267 324.466L536.983 321.182C536.231 320.43 535.211 320.006 534.147 320.003C533.083 320.001 532.062 320.419 531.305 321.167L508.473 342.23C507.635 342.972 507.123 344.013 507.046 345.129C507.022 345.684 507.112 346.237 507.311 346.755C507.511 347.273 507.815 347.744 508.204 348.139L513.109 353.097L513.118 353.105C513.876 353.861 514.902 354.286 515.972 354.29H516.121C516.675 354.258 517.218 354.118 517.718 353.877C518.218 353.636 518.665 353.299 519.035 352.885L540.253 330.167C541.011 329.415 541.439 328.394 541.444 327.327C541.449 326.26 541.029 325.235 540.278 324.477L540.267 324.466Z" fill="white"/>
<path d="M566.66 317.829L566.621 317.79L562.31 313.525C562.058 313.274 561.758 313.074 561.428 312.939C561.098 312.804 560.745 312.736 560.389 312.738C559.811 312.739 559.248 312.921 558.78 313.259C558.78 313.204 558.787 313.152 558.791 313.105C558.965 312.004 558.733 310.877 558.137 309.934C557.188 308.655 556.145 307.447 555.018 306.321L555.008 306.311C551.857 303.289 548.154 300.901 544.101 299.278C541.982 298.409 539.714 297.962 537.424 297.964C534.46 297.937 531.58 298.946 529.28 300.815C528.626 301.44 528.029 302.123 527.497 302.855C527.243 303.205 527.109 303.629 527.114 304.062C527.12 304.495 527.266 304.915 527.529 305.258C527.793 305.602 528.16 305.852 528.577 305.97C528.994 306.088 529.438 306.069 529.843 305.915C530.195 305.783 530.556 305.673 530.922 305.584C531.684 305.423 532.466 305.374 533.242 305.44C534.852 305.607 536.395 306.173 537.731 307.085C538.481 307.716 539.077 308.509 539.475 309.404C539.873 310.299 540.062 311.273 540.028 312.251C539.469 313.842 538.616 315.312 537.512 316.586C537.218 316.974 537.075 317.455 537.108 317.941C537.142 318.426 537.35 318.883 537.695 319.227L542.023 323.553C542.386 323.917 542.876 324.129 543.391 324.143C543.905 324.158 544.406 323.974 544.79 323.631C546.014 322.538 547.878 320.891 548.529 320.488C549.086 320.115 549.717 319.867 550.378 319.759C550.871 319.71 551.367 319.815 551.798 320.058C551.8 320.079 551.798 320.101 551.791 320.122C551.784 320.142 551.773 320.161 551.759 320.177L551.53 320.395L551.492 320.43C550.984 320.936 550.697 321.624 550.696 322.342C550.695 323.059 550.979 323.748 551.485 324.256L551.499 324.27L555.808 328.533C556.06 328.784 556.36 328.983 556.69 329.118C557.02 329.253 557.373 329.321 557.73 329.319C558.445 329.32 559.133 329.04 559.644 328.539L566.624 321.647C566.648 321.623 566.672 321.598 566.695 321.573C567.163 321.06 567.42 320.388 567.413 319.694C567.407 318.999 567.137 318.333 566.66 317.829Z" fill="white"/>
<path d="M73.5142 322.351C73.0162 322.351 72.5293 322.203 72.1152 321.926C71.7011 321.65 71.3784 321.257 71.1878 320.797C70.9972 320.337 70.9473 319.831 71.0445 319.342C71.1417 318.854 71.3815 318.406 71.7336 318.054L77.5075 312.282L71.7336 306.51C71.2614 306.038 70.9961 305.398 70.9961 304.73C70.9961 304.062 71.2614 303.422 71.7336 302.95C72.2059 302.478 72.8464 302.213 73.5142 302.213C74.1821 302.213 74.8226 302.478 75.2949 302.95L82.8495 310.502C83.0833 310.736 83.2689 311.013 83.3954 311.318C83.522 311.624 83.5871 311.951 83.5871 312.282C83.5871 312.612 83.522 312.94 83.3954 313.245C83.2689 313.55 83.0833 313.828 82.8495 314.062L75.2949 321.613C75.0613 321.847 74.7837 322.033 74.4782 322.16C74.1726 322.286 73.845 322.351 73.5142 322.351Z" fill="white"/>
<path d="M33.2233 329.902C32.8926 329.903 32.5651 329.837 32.2596 329.711C31.9541 329.584 31.6765 329.399 31.4426 329.165C31.2088 328.932 31.0233 328.654 30.8968 328.349C30.7702 328.043 30.7051 327.716 30.7051 327.385V324.868C30.7248 320.87 32.322 317.041 35.1497 314.213C37.9773 311.385 41.807 309.786 45.8069 309.765H78.5511C79.2189 309.765 79.8595 310.03 80.3317 310.502C80.804 310.974 81.0693 311.614 81.0693 312.282C81.0693 312.949 80.804 313.59 80.3317 314.062C79.8595 314.534 79.2189 314.799 78.5511 314.799H45.8144C43.1465 314.815 40.5924 315.882 38.7066 317.768C36.8208 319.655 35.7553 322.209 35.7415 324.876V327.385C35.7415 327.716 35.6764 328.043 35.5498 328.349C35.4233 328.654 35.2378 328.931 35.004 329.165C34.7701 329.399 34.4925 329.584 34.187 329.711C33.8815 329.837 33.554 329.903 33.2233 329.902V329.902Z" fill="white"/>
<path d="M53.3688 350.04C53.038 350.041 52.7104 349.976 52.4049 349.849C52.0993 349.723 51.8217 349.537 51.5882 349.303L44.0335 341.751C43.7997 341.518 43.6142 341.24 43.4876 340.935C43.361 340.629 43.2959 340.302 43.2959 339.972C43.2959 339.641 43.361 339.314 43.4876 339.008C43.6142 338.703 43.7997 338.425 44.0335 338.192L51.5882 330.64C52.0606 330.169 52.7008 329.904 53.3683 329.904C54.0358 329.905 54.6758 330.17 55.1478 330.642C55.6197 331.113 55.885 331.753 55.8853 332.42C55.8856 333.088 55.6209 333.728 55.1494 334.2L49.3755 339.972L55.1494 345.743C55.5015 346.095 55.7414 346.544 55.8385 347.032C55.9357 347.52 55.8858 348.027 55.6952 348.486C55.5046 348.946 55.1819 349.34 54.7678 349.616C54.3537 349.893 53.8668 350.04 53.3688 350.04Z" fill="white"/>
<path d="M48.3321 342.488C47.6643 342.488 47.0238 342.223 46.5515 341.751C46.0793 341.279 45.814 340.639 45.814 339.971C45.814 339.304 46.0793 338.663 46.5515 338.191C47.0238 337.719 47.6643 337.454 48.3321 337.454H81.0688C83.7367 337.438 86.2907 336.371 88.1766 334.485C90.0624 332.598 91.1278 330.044 91.1416 327.377V324.868C91.1416 324.2 91.407 323.56 91.8792 323.088C92.3515 322.616 92.992 322.351 93.6599 322.351C94.3277 322.351 94.9683 322.616 95.4405 323.088C95.9128 323.56 96.1781 324.2 96.1781 324.868V327.385C96.1583 331.383 94.5612 335.212 91.7335 338.04C88.9059 340.868 85.0761 342.467 81.0763 342.488L48.3321 342.488Z" fill="white"/>
</svg>
