<svg width="512" height="512" viewBox="0 0 512 512" fill="none" xmlns="http://www.w3.org/2000/svg">
<path d="M495.223 15.0006H467.209C446.071 14.9428 425.131 19.0782 405.602 27.1674C386.074 35.2566 368.343 47.139 353.437 62.1267C337.471 78.1119 323.156 95.6646 310.709 114.519H281.613C269.364 114.486 257.23 116.882 245.913 121.57C234.596 126.257 224.321 133.143 215.683 141.828C214.128 143.383 213.254 145.492 213.254 147.692C213.254 149.891 214.128 152.001 215.683 153.556L248.856 186.729C250.412 188.284 252.521 189.158 254.721 189.158H273.665C273.221 190.426 272.781 191.696 272.353 192.97L248.856 216.467C211.696 253.651 177.929 294.078 147.957 337.267C140.47 331.013 131.695 326.488 122.258 324.015C112.822 321.542 102.956 321.182 93.3639 322.96C83.772 324.738 74.6907 328.611 66.7675 334.302C58.8443 339.993 52.2746 347.362 47.5268 355.884C40.3618 354.4 32.9318 354.837 25.9902 357.151C19.0485 359.464 12.842 363.572 8 369.058L20.4357 380.033C22.7716 377.387 25.6434 375.267 28.8607 373.814C32.0781 372.362 35.5674 371.61 39.0974 371.608C39.7949 371.608 40.4869 371.643 41.1745 371.699C39.7922 377.089 39.0943 382.631 39.0974 388.195H55.6838C55.6804 378.594 58.4553 369.198 63.6738 361.139C68.8923 353.081 76.3313 346.705 85.0933 342.781C93.8552 338.856 103.566 337.552 113.053 339.024C122.54 340.496 131.398 344.682 138.558 351.077C135.897 355.071 133.265 359.084 130.663 363.115L129.183 365.416C123.075 374.964 114.658 382.817 104.71 388.248C94.7617 393.679 83.6043 396.513 72.2702 396.488V413.074C86.3826 413.106 100.275 409.578 112.662 402.815C125.048 396.053 135.529 386.275 143.134 374.387L144.614 372.086C176.536 322.461 213.443 276.225 254.76 234.099L284.458 263.797L265.442 282.812C248.491 299.764 238.968 322.756 238.968 346.729C238.968 370.702 248.491 393.693 265.442 410.645L277.172 398.917C266.176 387.976 258.938 373.826 256.5 358.507C261.078 356.225 266.123 355.032 271.239 355.022C276.355 355.012 281.404 356.186 285.991 358.451C290.578 360.716 294.579 364.012 297.681 368.08C300.784 372.148 302.903 376.879 303.873 381.902C300.192 382.767 296.582 383.914 293.075 385.33L299.299 400.705C308.113 397.15 317.664 395.812 327.116 396.808C336.568 397.804 345.631 401.104 353.51 406.418C361.39 411.732 367.845 418.899 372.309 427.289C376.774 435.679 379.112 445.036 379.119 454.54H395.705C395.683 434.752 387.812 415.78 373.819 401.787C359.827 387.795 340.855 379.924 321.066 379.901C320.832 379.901 320.599 379.916 320.365 379.918C319.172 372.857 316.469 366.137 312.441 360.216C308.414 354.295 303.156 349.313 297.027 345.61C290.899 341.906 284.043 339.569 276.928 338.757C269.813 337.945 262.607 338.677 255.802 340.904C257.134 323.387 264.718 306.932 277.172 294.54L325.547 246.164C326.821 245.736 328.091 245.296 329.359 244.852V263.797C329.359 265.996 330.233 268.105 331.788 269.661L364.961 302.834C366.516 304.389 368.626 305.263 370.825 305.263C373.025 305.263 375.135 304.389 376.69 302.834C385.375 294.196 392.26 283.921 396.948 272.605C401.635 261.288 404.032 249.154 403.998 236.905V207.808C422.853 195.36 440.406 181.045 456.392 165.08C471.379 150.174 483.261 132.443 491.35 112.914C499.439 93.3856 503.574 72.4463 503.517 51.3087V23.2938C503.517 21.0943 502.643 18.9849 501.088 17.4296C499.532 15.8744 497.423 15.0006 495.223 15.0006V15.0006ZM486.93 31.587V51.3087C486.94 64.1307 485.25 76.8974 481.904 89.2752C469.622 87.9 458.178 82.3753 449.461 73.6143L444.903 69.0567C436.142 60.3399 430.618 48.8948 429.242 36.6127C441.62 33.2671 454.387 31.5771 467.209 31.587H486.93ZM258.156 172.571L233.588 148.003C247.18 137.022 264.139 131.055 281.613 131.105H300.418C292.665 144.445 285.833 158.299 279.971 172.571H258.156ZM266.449 222.331L279.6 209.18L309.338 238.917L296.187 252.068L266.449 222.331ZM387.412 236.905C387.462 254.379 381.495 271.337 370.514 284.93L345.946 260.362V238.546C360.218 232.684 374.073 225.853 387.412 218.099V236.905ZM444.663 153.352C410.43 187.499 368.943 213.494 323.284 229.406L289.112 195.234C305.023 149.575 331.019 108.087 365.166 73.8543C378.879 60.0968 395.233 49.2555 413.245 41.9828C415.637 56.6927 422.611 70.2721 433.174 80.7849L437.732 85.3425C448.245 95.9059 461.824 102.881 476.534 105.272C469.261 123.284 458.42 139.638 444.663 153.352V153.352Z" fill="#0366D6"/>
<path d="M64.1731 449.166C56.4229 446.387 48.1041 445.575 39.9628 446.803C31.8214 448.031 24.1122 451.261 17.5264 456.202L27.4879 469.464C32.417 465.769 38.2776 463.519 44.413 462.967C50.5485 462.415 56.7165 463.582 62.2262 466.337C67.7359 469.092 72.3697 473.327 75.6084 478.567C78.8472 483.807 80.563 489.846 80.5636 496.006H97.15C97.15 488.587 95.4881 481.261 92.2864 474.568C89.0847 467.875 84.4245 461.984 78.648 457.328C84.3615 448.257 93.3647 441.75 103.77 439.172C114.176 436.593 125.175 438.143 134.463 443.496L142.769 429.139C129.644 421.568 114.08 419.425 99.3972 423.166C84.7144 426.908 72.0745 436.238 64.173 449.166L64.1731 449.166Z" fill="#0366D6"/>
<path d="M221.547 413.074C207.265 413.064 193.482 418.329 182.844 427.858L193.905 440.217C200.771 434.087 209.481 430.416 218.663 429.78C227.845 429.143 236.978 431.579 244.624 436.703C252.27 441.827 257.994 449.348 260.897 458.082C263.799 466.817 263.714 476.269 260.655 484.95L276.294 490.476C279.382 481.719 280.325 472.349 279.045 463.152C277.764 453.955 274.298 445.199 268.936 437.618C263.574 430.037 256.472 423.852 248.227 419.582C239.982 415.311 230.833 413.08 221.547 413.074V413.074Z" fill="#0366D6"/>
</svg>
