<svg width="512" height="512" viewBox="0 0 512 512" fill="none" xmlns="http://www.w3.org/2000/svg">
<path d="M123.317 56.331C123.349 46.3813 120.589 36.6223 115.349 28.164C110.109 19.7057 102.601 12.8878 93.6777 8.48576C84.7547 4.08371 74.7754 2.27429 64.875 3.26329C54.9745 4.2523 45.5503 8.00004 37.6744 14.0802C29.7986 20.1604 23.7872 28.3289 20.3242 37.6565C16.8611 46.9841 16.0854 57.0964 18.0853 66.8431C20.0851 76.5898 24.7802 85.5796 31.6366 92.7899C38.4929 100 47.2352 105.141 56.869 107.629V204.377C45.6078 207.438 35.6665 214.119 28.5789 223.39C21.4913 232.66 17.6513 244.006 17.6513 255.675C17.6513 267.345 21.4913 278.691 28.5789 287.961C35.6665 297.232 45.6078 303.913 56.869 306.973V403.722C44.3414 406.956 33.4236 414.649 26.162 425.358C18.9004 436.066 15.7935 449.055 17.4238 461.891C19.0541 474.726 25.3096 486.526 35.0178 495.079C44.7259 503.632 57.2202 508.351 70.1586 508.351C83.0971 508.351 95.5914 503.632 105.3 495.079C115.008 486.526 121.263 474.726 122.893 461.891C124.524 449.055 121.417 436.066 114.155 425.358C106.894 414.649 95.9759 406.956 83.4483 403.722V306.973C94.7095 303.913 104.651 297.232 111.738 287.961C118.826 278.691 122.666 267.345 122.666 255.675C122.666 244.006 118.826 232.66 111.738 223.39C104.651 214.119 94.7095 207.438 83.4483 204.377V107.629C94.8305 104.69 104.918 98.0613 112.131 88.7795C119.345 79.4977 123.279 68.0865 123.317 56.331V56.331ZM43.5794 56.331C43.5794 51.0741 45.1382 45.9353 48.0588 41.5644C50.9794 37.1934 55.1305 33.7867 59.9872 31.775C64.8439 29.7633 70.1881 29.2369 75.344 30.2625C80.4999 31.288 85.2358 33.8195 88.953 37.5366C92.6702 41.2538 95.2016 45.9898 96.2272 51.1457C97.2528 56.3015 96.7264 61.6457 94.7147 66.5024C92.703 71.3592 89.2962 75.5103 84.9253 78.4309C80.5543 81.3514 75.4155 82.9103 70.1586 82.9103C63.1094 82.9103 56.3489 80.11 51.3643 75.1254C46.3797 70.1408 43.5794 63.3803 43.5794 56.331ZM96.7379 455.02C96.7379 460.277 95.1791 465.416 92.2585 469.787C89.3379 474.157 85.1868 477.564 80.3301 479.576C75.4734 481.588 70.1292 482.114 64.9733 481.088C59.8174 480.063 55.0815 477.531 51.3643 473.814C47.6471 470.097 45.1157 465.361 44.0901 460.205C43.0645 455.049 43.5909 449.705 45.6026 444.848C47.6143 439.992 51.0211 435.841 55.392 432.92C59.7629 429.999 64.9018 428.441 70.1586 428.441C77.2079 428.441 83.9684 431.241 88.953 436.225C93.9376 441.21 96.7379 447.971 96.7379 455.02ZM96.7379 255.675C96.7379 260.932 95.1791 266.071 92.2585 270.442C89.3379 274.813 85.1868 278.22 80.3301 280.231C75.4734 282.243 70.1292 282.77 64.9733 281.744C59.8174 280.718 55.0815 278.187 51.3643 274.47C47.6471 270.753 45.1157 266.017 44.0901 260.861C43.0645 255.705 43.5909 250.361 45.6026 245.504C47.6143 240.647 51.0211 236.496 55.392 233.576C59.7629 230.655 64.9018 229.096 70.1586 229.096C77.2079 229.096 83.9684 231.896 88.953 236.881C93.9376 241.866 96.7379 248.626 96.7379 255.675Z" fill="#0366D6"/>
<path d="M482.137 16.4622H176.475C172.951 16.4622 169.57 17.8623 167.078 20.3546C164.586 22.8469 163.186 26.2272 163.186 29.7518C163.186 33.2764 164.586 36.6567 167.078 39.149C169.57 41.6413 172.951 43.0414 176.475 43.0414H482.137C485.661 43.0414 489.042 41.6413 491.534 39.149C494.026 36.6567 495.426 33.2764 495.426 29.7518C495.426 26.2272 494.026 22.8469 491.534 20.3546C489.042 17.8623 485.661 16.4622 482.137 16.4622Z" fill="#0366D6"/>
<path d="M176.475 96.1999H349.24C352.765 96.1999 356.145 94.7997 358.638 92.3074C361.13 89.8151 362.53 86.4349 362.53 82.9102C362.53 79.3856 361.13 76.0053 358.638 73.513C356.145 71.0208 352.765 69.6206 349.24 69.6206H176.475C172.951 69.6206 169.57 71.0208 167.078 73.513C164.586 76.0053 163.186 79.3856 163.186 82.9102C163.186 86.4349 164.586 89.8151 167.078 92.3074C169.57 94.7997 172.951 96.1999 176.475 96.1999Z" fill="#0366D6"/>
<path d="M495.426 428.441C495.426 424.916 494.026 421.536 491.534 419.044C489.042 416.551 485.661 415.151 482.137 415.151H176.475C172.951 415.151 169.57 416.551 167.078 419.044C164.586 421.536 163.186 424.916 163.186 428.441C163.186 431.965 164.586 435.346 167.078 437.838C169.57 440.33 172.951 441.73 176.475 441.73H482.137C485.661 441.73 489.042 440.33 491.534 437.838C494.026 435.346 495.426 431.965 495.426 428.441Z" fill="#0366D6"/>
<path d="M176.475 468.309C172.951 468.309 169.57 469.709 167.078 472.202C164.586 474.694 163.186 478.074 163.186 481.599C163.186 485.124 164.586 488.504 167.078 490.996C169.57 493.488 172.951 494.889 176.475 494.889H349.24C352.765 494.889 356.145 493.488 358.638 490.996C361.13 488.504 362.53 485.124 362.53 481.599C362.53 478.074 361.13 474.694 358.638 472.202C356.145 469.709 352.765 468.309 349.24 468.309H176.475Z" fill="#0366D6"/>
<path d="M482.137 215.807H176.475C172.951 215.807 169.57 217.207 167.078 219.699C164.586 222.191 163.186 225.572 163.186 229.096C163.186 232.621 164.586 236.001 167.078 238.493C169.57 240.986 172.951 242.386 176.475 242.386H482.137C485.661 242.386 489.042 240.986 491.534 238.493C494.026 236.001 495.426 232.621 495.426 229.096C495.426 225.572 494.026 222.191 491.534 219.699C489.042 217.207 485.661 215.807 482.137 215.807Z" fill="#0366D6"/>
<path d="M176.475 295.544H349.24C352.765 295.544 356.145 294.144 358.638 291.652C361.13 289.159 362.53 285.779 362.53 282.254C362.53 278.73 361.13 275.35 358.638 272.857C356.145 270.365 352.765 268.965 349.24 268.965H176.475C172.951 268.965 169.57 270.365 167.078 272.857C164.586 275.35 163.186 278.73 163.186 282.254C163.186 285.779 164.586 289.159 167.078 291.652C169.57 294.144 172.951 295.544 176.475 295.544Z" fill="#0366D6"/>
</svg>
