<svg width="1000" height="1000" viewBox="0 0 1000 1000" fill="none" xmlns="http://www.w3.org/2000/svg">
<g clip-path="url(#clip0)">
<g clip-path="url(#clip1)">
<path d="M510.708 276.748C501.351 261.27 490.264 244.744 472.901 239.69C452.793 233.837 432.138 245.464 414.617 256.938C362.22 291.251 311.76 328.437 263.47 368.325L263.523 368.926C301.119 366.333 338.715 363.74 376.311 361.146C403.474 359.273 431.57 357.141 455.575 344.288C464.684 339.411 473.563 332.896 483.885 332.442C496.709 331.878 507.891 340.836 516.679 350.196C568.659 405.559 583.701 490.224 642.017 538.865C605.244 448.158 561.337 360.511 510.708 276.748V276.748Z" fill="#F2F2F2"/>
<path d="M138.759 270.004C138.147 270.445 137.536 270.886 136.924 271.317C132.422 273.584 128 276.001 123.598 278.438C115.336 283.012 107.181 287.785 99.1325 292.76C83.1191 302.659 67.6072 313.313 52.5968 324.723C44.8156 330.64 37.1949 336.751 29.7349 343.056C29.1939 342.465 28.672 341.853 28.1608 341.231C28.0404 341.081 27.9101 340.93 27.8 340.77C22.0676 333.616 17.8834 325.349 15.5122 316.494C13.1411 307.638 12.6348 298.386 14.0255 289.324C15.4161 280.263 18.6734 271.589 23.5909 263.852C28.5084 256.115 34.9789 249.485 42.5924 244.38C50.206 239.275 58.7966 235.808 67.8199 234.198C76.8433 232.587 86.1027 232.869 95.0114 235.025C103.92 237.182 112.284 241.165 119.573 246.724C126.862 252.282 132.917 259.294 137.355 267.316C137.426 267.436 137.496 267.567 137.556 267.687C137.977 268.449 138.378 269.221 138.759 270.004Z" fill="#1e86fc"/>
<path d="M145.189 651.63C172.415 652.373 199.562 654.934 226.447 659.296C307.312 672.454 384.843 701.23 454.716 744.017C477.953 758.239 500.216 773.997 521.354 791.186C523.946 793.296 526.521 795.428 529.078 797.581C530.72 798.963 533.105 796.601 531.45 795.208C510.464 777.554 488.327 761.315 465.186 746.599C442.07 731.908 418.02 718.743 393.189 707.187C368.322 695.607 342.737 685.641 316.59 677.35C290.482 669.071 263.863 662.504 236.901 657.689C210.007 652.879 182.825 649.857 155.532 648.641C152.085 648.489 148.637 648.367 145.189 648.274C143.029 648.215 143.03 651.571 145.189 651.63V651.63Z" fill="#E4E4E4"/>
<path d="M138.754 545.555C187.492 548.965 236.249 552.431 284.793 558.037C333.388 563.649 381.812 571.444 429.256 583.489C471.199 594.137 512.289 608.158 551.393 626.768C587.953 644.168 622.831 665.387 654.317 690.9C685.362 716.055 713.121 745.42 735.328 778.697C738.126 782.89 740.835 787.139 743.455 791.446C744.578 793.287 747.481 791.603 746.352 789.752C725.177 755.403 698.83 724.527 668.241 698.215C637.579 671.601 603.337 649.248 567.195 630.822C529.385 611.76 489.776 596.5 448.95 585.268C401.724 572.048 353.351 563.363 304.745 557.113C255.703 550.808 206.387 546.985 157.079 543.488C150.971 543.054 144.863 542.625 138.754 542.199C136.599 542.048 136.609 545.405 138.754 545.555H138.754Z" fill="#E4E4E4"/>
<path d="M833.577 751.925C827.828 744.665 822.121 737.372 816.454 730.045C770.287 670.321 726.893 608.58 686.273 544.821C658.683 501.519 632.46 457.385 607.606 412.42C595.773 391.043 584.265 369.498 573.081 347.785C564.402 330.95 555.917 314.014 547.626 296.977C545.255 292.111 542.951 287.222 540.659 282.323C535.257 270.801 529.955 259.223 524.263 247.858C517.776 234.904 509.881 221.324 497.969 212.621C492.549 208.497 486.067 206.003 479.281 205.428C469.585 204.801 460.637 208.806 452.227 213.18C390.693 245.274 333.085 285.511 280.979 331.296C228.74 377.185 182.046 429.028 141.851 485.769C140.621 487.525 137.713 485.847 138.954 484.08C143.842 477.166 148.826 470.328 153.907 463.564C217.088 379.516 294.558 307.24 382.775 250.039C397.616 240.419 412.737 231.25 428.137 222.532C435.898 218.135 443.694 213.795 451.623 209.723C459.396 205.73 467.65 202.139 476.53 202.005C506.749 201.535 522.395 235.765 533.143 258.798C536.52 266.047 539.939 273.273 543.398 280.477C556.472 307.828 570.05 334.928 584.13 361.779C592.82 378.357 601.7 394.839 610.771 411.223C638.999 462.244 669.001 512.232 700.779 561.187C742.875 626.034 787.932 688.823 835.948 749.554C837.268 751.232 834.908 753.626 833.577 751.925Z" fill="#E4E4E4"/>
<path d="M277.993 314.394C276.237 312.437 274.492 310.479 272.725 308.521C258.79 293.107 243.837 277.871 224.701 269.034C215.577 264.687 205.617 262.377 195.511 262.266C185.065 262.299 174.855 265.04 165.203 268.877C160.64 270.7 156.177 272.77 151.782 274.973C146.76 277.502 141.828 280.197 136.919 282.916C127.703 288.017 118.607 293.341 109.63 298.89C91.7693 309.931 74.4677 321.814 57.7255 334.541C49.0464 341.141 40.5466 347.957 32.2258 354.989C24.4866 361.522 16.9039 368.23 9.47785 375.114C7.88981 376.579 5.51875 374.207 7.10673 372.742C9.06392 370.919 11.0435 369.107 13.023 367.317C18.615 362.26 24.2965 357.301 30.0676 352.439C40.5913 343.557 51.3875 335.018 62.4562 326.822C79.6684 314.07 97.4732 302.182 115.87 291.16C125.064 285.656 134.384 280.384 143.83 275.343C146.682 273.821 149.568 272.333 152.487 270.924C159.11 267.582 165.992 264.781 173.065 262.545C183.085 259.303 193.686 258.262 204.145 259.492C214.244 260.961 223.973 264.327 232.821 269.414C251.61 279.918 266.182 296.16 280.364 312.011C281.796 313.622 279.435 316.005 277.993 314.394Z" fill="#E4E4E4"/>
<path d="M662.969 474.132L707.992 457.661L730.346 449.484C737.627 446.82 744.889 443.788 752.416 441.881C759.07 440.195 765.831 439.919 772.391 442.136C778.179 444.278 783.478 447.564 787.971 451.796C792.562 456.024 796.833 460.587 800.75 465.446C805.617 471.296 810.412 477.208 815.229 483.099C835.107 507.415 854.856 531.837 874.475 556.364C894.093 580.891 913.58 605.522 932.936 630.257C952.339 655.053 971.609 679.952 990.745 704.955C993.089 708.018 995.431 711.083 997.772 714.149C999.065 715.842 1001.98 714.173 1000.67 712.455C981.391 687.2 961.979 662.049 942.433 637.002C922.839 611.894 903.109 586.893 883.244 561.998C863.379 537.104 843.381 512.318 823.247 487.64C818.232 481.492 813.208 475.351 808.175 469.216C803.93 464.041 799.733 458.811 795.077 453.994C786.531 445.154 775.853 437.341 763.072 437.129C755.557 437.004 748.285 439.389 741.303 441.916C733.776 444.639 726.267 447.414 718.75 450.164L673.412 466.75L662.078 470.896C660.066 471.632 660.935 474.877 662.969 474.132V474.132Z" fill="#E4E4E4"/>
<path d="M150.859 250.61L148.182 252.634C137.479 238.448 122.413 228.171 105.301 223.383C88.1891 218.595 69.9787 219.561 53.4693 226.133C36.9599 232.704 23.0654 244.518 13.9219 259.757C4.77837 274.996 0.892041 292.816 2.86035 310.48C4.80895 328.539 12.823 345.403 25.5932 358.317L23.2008 360.671C9.90146 347.222 1.55527 329.659 -0.474244 310.852C-2.5241 292.458 1.5228 273.9 11.0443 258.031C20.5658 242.161 35.0348 229.859 52.227 223.015C69.4191 216.172 88.3827 215.165 106.202 220.151C124.022 225.136 139.711 235.838 150.859 250.61V250.61Z" fill="#E4E4E4"/>
<path d="M406.953 465.515C405.99 464.936 405.166 464.153 404.538 463.221C403.91 462.289 403.495 461.231 403.32 460.121C403.146 459.011 403.217 457.876 403.528 456.797C403.84 455.717 404.384 454.719 405.123 453.872L395.137 353.642L411.811 354.748L416.431 453.445C417.77 454.781 418.573 456.562 418.688 458.45C418.802 460.338 418.22 462.203 417.052 463.691C415.884 465.179 414.21 466.186 412.349 466.522C410.488 466.859 408.568 466.5 406.953 465.515V465.515Z" fill="#9E616A"/>
<path d="M418.567 349.929L414.195 383.162L414.802 403.53L396.462 405.21L392.787 388.269L390.762 343.421C390.609 340.038 391.744 336.724 393.938 334.145C396.131 331.566 399.221 329.914 402.584 329.523V329.523C406.072 329.117 409.581 330.1 412.352 332.259C415.122 334.418 416.933 337.58 417.394 341.062L418.567 349.929Z" fill="#2F2E41"/>
<path d="M348.333 642.341H337.209L331.917 599.421L348.336 599.423L348.333 642.341Z" fill="#9E616A"/>
<path d="M351.171 653.127L315.3 653.126V652.672C315.3 648.969 316.771 645.417 319.389 642.798C322.008 640.179 325.559 638.708 329.262 638.708H329.263L351.171 638.708L351.171 653.127Z" fill="#2F2E41"/>
<path d="M440.193 642.341H429.069L423.775 599.421L440.195 599.423L440.193 642.341Z" fill="#9E616A"/>
<path d="M443.03 653.127L407.159 653.126V652.672C407.159 648.969 408.631 645.417 411.249 642.798C413.867 640.179 417.418 638.708 421.121 638.708H421.122L443.031 638.708L443.03 653.127Z" fill="#2F2E41"/>
<path d="M396.933 313.726C410.254 313.726 421.053 302.925 421.053 289.601C421.053 276.277 410.254 265.476 396.933 265.476C383.612 265.476 372.813 276.277 372.813 289.601C372.813 302.925 383.612 313.726 396.933 313.726Z" fill="#9E616A"/>
<path d="M393.816 323.52L410.555 325.433C414.625 331.207 417.264 337.866 418.254 344.861C419.245 351.856 418.558 358.986 416.25 365.663L403.62 402.208C403.62 402.208 421.153 437.364 421.153 470.004C421.153 502.644 454.543 619.153 454.543 619.153L407.543 624.057L387.036 499.942L358.775 623.557L326.514 618.304L344.283 456.231L356.024 402.885L356.525 376.87C356.525 376.87 351.532 357.35 364.027 344.852L379.283 323.59L393.816 323.52Z" fill="#2F2E41"/>
<path d="M368.816 280.985H404.259V265.533C396.48 262.441 388.868 259.812 384.266 265.533C380.168 265.533 376.239 267.161 373.341 270.059C370.444 272.957 368.816 276.887 368.816 280.985V280.985Z" fill="#2F2E41"/>
<path d="M406.222 262.805C427.41 262.805 433.341 289.37 433.341 304.356C433.341 312.714 429.562 315.703 423.624 316.715L421.527 305.528L416.615 317.196C414.947 317.205 413.194 317.172 411.378 317.139L409.712 313.709L405.999 317.077C391.125 317.099 379.103 319.268 379.103 304.356C379.103 289.37 384.304 262.805 406.222 262.805Z" fill="#2F2E41"/>
<path opacity="0.2" d="M374.887 409.533L373.991 370.619L371.615 353.344L365.74 370.457L374.887 409.533Z" fill="black"/>
<path d="M419.464 404.343H392.829V326.039H419.464C424.559 326.045 429.444 328.072 433.048 331.676C436.651 335.28 438.678 340.166 438.683 345.263V385.12C438.677 390.216 436.651 395.103 433.048 398.707C429.444 402.311 424.559 404.338 419.464 404.343V404.343Z" fill="#1e86fc"/>
<path d="M415.756 362.394C414.867 362.394 414.014 362.04 413.385 361.411C412.756 360.781 412.402 359.928 412.401 359.039V329.954H419.111V359.039C419.11 359.928 418.756 360.781 418.127 361.411C417.498 362.04 416.646 362.394 415.756 362.394Z" fill="#3F3D56"/>
<path d="M423.823 398.191H404.334C403.211 398.189 402.135 397.742 401.341 396.948C400.547 396.154 400.1 395.077 400.099 393.954V382.292C400.1 381.169 400.547 380.092 401.341 379.298C402.135 378.503 403.211 378.056 404.334 378.055H423.823C424.946 378.056 426.022 378.503 426.816 379.298C427.611 380.092 428.057 381.169 428.058 382.292V393.954C428.057 395.077 427.611 396.154 426.816 396.948C426.022 397.742 424.946 398.189 423.823 398.191V398.191Z" fill="#3F3D56"/>
<path d="M368.333 374.372C363.289 368.419 360.396 359.772 360.396 350.649C360.396 333.378 370.681 319.327 383.323 319.327C390.11 319.327 396.504 323.384 400.866 330.458L398.963 331.633C395.017 325.234 389.317 321.564 383.323 321.564C371.914 321.564 362.633 334.612 362.633 350.649C362.633 359.251 365.333 367.371 370.04 372.925L368.333 374.372Z" fill="#1e86fc"/>
<path d="M379.204 469.565C378.185 468.874 377.33 467.969 376.699 466.912C376.068 465.855 375.676 464.672 375.551 463.448C375.426 462.223 375.571 460.985 375.976 459.823C376.381 458.66 377.036 457.6 377.894 456.718L372.926 346.466L391.104 348.669L390.291 456.923C391.677 458.464 392.45 460.46 392.463 462.533C392.476 464.606 391.728 466.611 390.362 468.17C388.995 469.728 387.104 470.731 385.048 470.988C382.992 471.245 380.913 470.739 379.204 469.565V469.565Z" fill="#9E616A"/>
<path d="M398.78 343.798L392.022 379.897L391.476 402.217L371.311 402.964L368.297 384.212L368.747 335.025C368.781 331.315 370.22 327.756 372.773 325.064C375.326 322.373 378.805 320.75 382.507 320.522V320.522C386.348 320.286 390.128 321.57 393.031 324.096C395.934 326.623 397.728 330.19 398.025 334.027L398.78 343.798Z" fill="#2F2E41"/>
<path d="M442.695 685.614C444.193 681.557 436.013 674.798 424.425 670.517C412.837 666.236 402.228 666.054 400.73 670.111C399.232 674.168 407.412 680.927 419 685.208C430.588 689.489 441.197 689.671 442.695 685.614Z" fill="#E6E6E6"/>
<path d="M514.898 689.049C517.06 685.304 510.139 677.26 499.441 671.082C488.743 664.904 478.317 662.931 476.156 666.677C473.994 670.422 480.914 678.466 491.612 684.644C502.311 690.822 512.736 692.795 514.898 689.049Z" fill="#E6E6E6"/>
<path d="M550.053 737.381C552.044 733.542 544.767 725.819 533.8 720.131C522.833 714.443 512.329 712.945 510.339 716.784C508.349 720.624 515.626 728.347 526.593 734.034C537.559 739.722 548.063 741.22 550.053 737.381Z" fill="#E6E6E6"/>
<path d="M621.631 754.161C623.621 750.322 616.344 742.598 605.377 736.911C594.41 731.223 583.906 729.725 581.916 733.564C579.926 737.403 587.203 745.126 598.17 750.814C609.137 756.502 619.64 758 621.631 754.161Z" fill="#E6E6E6"/>
<path d="M218.776 288.43C195.897 276.668 166.596 278.972 145.571 293.666C185.674 300.586 225.339 309.846 264.361 321.397C248.157 311.899 235.481 297.017 218.776 288.43Z" fill="#F2F2F2"/>
<path d="M145.346 293.625L140.941 297.206C142.431 295.953 143.98 294.778 145.571 293.666C145.496 293.653 145.421 293.638 145.346 293.625Z" fill="#F2F2F2"/>
<path d="M786.276 474.297C781.844 468.901 777.052 463.251 770.423 461.059L764.234 461.303C811.347 544.571 874.977 617.33 951.217 675.115C896.237 608.175 841.256 541.236 786.276 474.297Z" fill="#F2F2F2"/>
</g>
</g>
<defs>
<clipPath id="clip0">
<rect width="1000" height="1000" fill="white"/>
</clipPath>
<clipPath id="clip1">
<rect width="1002" height="596" fill="white" transform="translate(-1 202)"/>
</clipPath>
</defs>
</svg>
