<svg width="250" height="250" viewBox="0 0 250 250" fill="none" xmlns="http://www.w3.org/2000/svg">
<rect x="0.5" y="0.5" width="249" height="249" rx="4.5" fill="#0366D6"/>
<path d="M211.649 116.983L133.057 38.3944C128.534 33.8685 121.193 33.8685 116.663 38.3944L100.346 54.7155L121.048 75.4171C125.86 73.793 131.376 74.8824 135.21 78.7167C139.064 82.5752 140.147 88.1377 138.48 92.9659L158.431 112.92C163.258 111.256 168.829 112.331 172.682 116.193C178.072 121.578 178.072 130.309 172.682 135.698C167.292 141.088 158.564 141.088 153.171 135.698C149.118 131.643 148.116 125.689 150.169 120.696L131.564 102.089L131.561 151.057C132.876 151.705 134.115 152.572 135.21 153.663C140.599 159.049 140.599 167.777 135.21 173.174C129.821 178.56 121.088 178.56 115.705 173.174C110.318 167.778 109.876 159.05 115.261 153.663C116.593 152.333 117.906 151.328 119.332 150.654V101.233C117.906 100.56 116.595 99.5622 115.26 98.2233C111.18 94.1452 110.417 88.1563 112.511 83.1427L92.2156 62.7335L38.3813 116.619C33.8539 121.149 33.8825 128.49 38.4098 133.017L117.015 211.606C121.54 216.131 128.886 216.131 133.418 211.606L211.644 133.382C216.171 128.854 216.175 121.509 211.649 116.983V116.983Z" fill="white"/>
<rect x="0.5" y="0.5" width="249" height="249" rx="4.5" stroke="#0366D6"/>
</svg>
